<?xml version="1.0" standalone="no"?>
<!DOCTYPE svg PUBLIC "-//W3C//DTD SVG 1.1//EN" "http://www.w3.org/Graphics/SVG/1.1/DTD/svg11.dtd" >
<svg xmlns="http://www.w3.org/2000/svg">
<metadata>
This is a custom SVG webfont generated by Font Squirrel.
Copyright   : Copyright c 2011 by John Vargas Beltran johnvargasbeltrangmailcom with Reserved Font Name Germania One
Designer    : John Vargas Beltran
Foundry     : John Vargas Beltran
</metadata>
<defs>
<font id="GermaniaOneRegular" horiz-adv-x="950" >
<font-face units-per-em="2048" ascent="1638" descent="-410" />
<missing-glyph horiz-adv-x="512" />
<glyph unicode=" "  horiz-adv-x="512" />
<glyph unicode="&#x09;" horiz-adv-x="512" />
<glyph unicode="&#xa0;" horiz-adv-x="512" />
<glyph unicode="!" horiz-adv-x="608" d="M113 146.5q0 25.5 85 96t107.5 70.5t106.5 -70.5t84 -96t-84 -98.5t-107.5 -73t-107.5 73t-84 98.5zM158 1458h282q-16 -616 -16 -736t31 -198l-195 -137q-63 78 -76 334z" />
<glyph unicode="&#x22;" horiz-adv-x="958" d="M113 1044q0 43 45 228.5t57 185.5q35 0 148.5 -44t113.5 -60q-66 -133 -146.5 -247t-86.5 -114q-20 0 -75.5 20.5t-55.5 30.5zM481 1044q0 43 45 228.5t58 185.5q35 0 148.5 -44t113.5 -60q-66 -133 -147 -247t-87 -114q-20 0 -75.5 20.5t-55.5 30.5z" />
<glyph unicode="#" horiz-adv-x="1261" d="M113 352v242h186l31 164h-217v241h262l71 385q20 0 97.5 -29.5t107.5 -51.5l-57 -304h192l72 385q20 0 97 -29.5t108 -51.5l-57 -304h143v-241h-186l-31 -164h217v-242h-262l-70 -377q-27 0 -100.5 29t-104.5 53l54 295h-191l-69 -377q-27 0 -101 29t-104 53l53 295h-141 zM520 594h191l30 164h-190z" />
<glyph unicode="$" d="M92 919.5q0 59.5 20.5 102.5t113.5 127t169 123v162h185v-168q182 -82 266 -226l-232 -159l-16 22q-90 115 -133 115q-23 0 -59.5 -27.5t-36.5 -45t25.5 -38t127 -72t192.5 -107.5t117.5 -102t26.5 -137.5t-29.5 -130.5t-104.5 -96t-144 -94v-168h-185v170 q-80 27 -165 89.5t-126 133.5l232 160l16 -23q61 -78 91 -96t47.5 -18t54.5 27.5t37 43t-27 38t-130 70.5t-191.5 103.5t-115 108.5t-26.5 112.5z" />
<glyph unicode="%" horiz-adv-x="1523" d="M113 969v125q0 109 15 140.5t99 90.5t127 59t127 -59t98.5 -89t14.5 -142v-125q0 -109 -10 -133q-14 -37 -99.5 -96.5t-129.5 -59.5t-126 59.5t-99 88t-17 141.5zM283 98l778 1286q25 0 90.5 -43t93.5 -79l-778 -1287q-25 0 -90 43t-94 80zM311 969q0 -66 14.5 -93.5 t29 -27.5t27.5 27.5t13 93.5v125q0 59 -6 76.5t-16.5 30.5t-18.5 13t-19 -13t-17.5 -30.5t-6.5 -76.5v-125zM930 264v125q0 109 15.5 140.5t99 91t126.5 59.5t127 -59.5t98.5 -89t14.5 -142.5v-125q0 -109 -10 -133q-14 -37 -99 -96.5t-129.5 -59.5t-126 59.5t-99 88 t-17.5 141.5zM1128 264q0 -66 13.5 -93.5t28 -27.5t28.5 28t14 93v125q0 59 -6 76.5t-16 31t-18.5 13.5t-19.5 -13.5t-17.5 -30.5t-6.5 -77v-125z" />
<glyph unicode="&#x26;" horiz-adv-x="1525" d="M113 453.5q0 111.5 22 144.5q45 68 180 178q-90 90 -115.5 134t-25.5 156t28.5 151.5t172 140t198 100.5t158 -76.5t162.5 -140.5l-197 -141q-16 25 -56 55.5t-63.5 30.5t-58.5 -28t-47 -52.5t-12 -69.5t13 -75.5t55 -70.5t71 -40h25v-227h-101q-27 -8 -63.5 -37 t-50 -51.5t-13.5 -85t19.5 -87t73 -59.5t91 -35t94 35t70.5 66q20 49 20.5 189t-12 192.5t-49.5 126.5l230 159q61 -57 92 -186h285v-227h-262v-195q0 -47 16 -84q31 -76 59.5 -76t87.5 64l203 -142q-76 -84 -160 -149.5t-131 -65.5q-76 0 -241 179q-203 -178 -303 -179 q-80 0 -237 126t-206 206q-22 35 -22 146.5z" />
<glyph unicode="'" horiz-adv-x="589" d="M113 1044q0 43 45 228.5t57 185.5q35 0 148.5 -44t113.5 -60q-66 -133 -146.5 -247t-86.5 -114q-20 0 -75.5 20.5t-55.5 30.5z" />
<glyph unicode="(" horiz-adv-x="757" d="M92 558q0 312 27.5 497.5t96.5 290t216 190.5l213 -150q-162 -123 -204 -283.5t-42 -591.5t42 -591t204 -282l-213 -150q-111 63 -173 132t-102 188.5t-52.5 278.5t-12.5 471z" />
<glyph unicode=")" horiz-adv-x="757" d="M113 -362q162 123 203.5 283.5t41.5 591.5t-42 591t-203 282l213 150q111 -63 173 -132t102 -188.5t52.5 -278.5t12.5 -471t-28 -497.5t-96.5 -290t-215.5 -190.5z" />
<glyph unicode="*" horiz-adv-x="995" d="M102 1126q0 61 24 136t62 131q106 -37 240 -154q-70 180 -70 277q61 20 139 20t140 -20q0 -102 -70 -277q135 119 242 152q25 -35 53.5 -112t34.5 -155q-94 -27 -201 -26q-10 0 -45 5t-43 5q156 -94 219 -180q-31 -47 -93 -95.5t-132 -70.5q-57 82 -104 266 q-47 -184 -105 -264q-51 14 -119.5 61t-107.5 103q70 94 221 180l-80 -10q-113 -1 -205 28z" />
<glyph unicode="+" horiz-adv-x="1011" d="M113 494v241h260v252h266v-252h260v-241h-260v-252h-266v252h-260z" />
<glyph unicode="," horiz-adv-x="589" d="M92 -190q0 33 115 221q-92 76 -92 102.5t80.5 95t102 68.5t101.5 -68.5t80 -93.5q0 -51 -160.5 -214t-177.5 -163q-6 0 -27.5 21t-21.5 31z" />
<glyph unicode="-" horiz-adv-x="784" d="M113 532v164h559v-164h-559z" />
<glyph unicode="." horiz-adv-x="589" d="M113 138.5q0 23.5 80.5 91t102 67.5t101.5 -67.5t80 -91t-80 -93.5t-102.5 -70t-102 70t-79.5 93.5z" />
<glyph unicode="/" horiz-adv-x="1269" d="M113 -389l819 1925q27 0 112.5 -44t112.5 -79l-819 -1925q-27 0 -112.5 44t-112.5 79z" />
<glyph unicode="0" d="M76 555v250q0 215 27.5 278.5t165 182t207 118.5t204.5 -118.5t172 -192.5q23 -47 22 -268v-250q0 -215 -27.5 -278.5t-164.5 -182.5t-206.5 -119t-207 119t-170.5 193q-22 43 -22 268zM350 555q0 -199 14.5 -225.5t50.5 -57t60.5 -30.5t60 30.5t50 56t14.5 226.5v250 q0 170 -11 211t-49 71.5t-63.5 30.5t-63.5 -30.5t-50.5 -62.5t-12.5 -220v-250z" />
<glyph unicode="1" horiz-adv-x="985" d="M76 1018q61 104 198.5 235t167 131t148.5 -70.5t129 -92.5v-996h190v-225h-729v225h277v883q-113 -106 -168 -213z" />
<glyph unicode="2" d="M68 1004q29 131 163 255.5t244 124.5q68 0 198 -115.5t179 -193.5q23 -37 22.5 -167t-27 -172t-225 -166t-247.5 -187q-16 -23 -17 -84v-74h508v-225h-790v279q0 121 28.5 178t125 136t211 153.5t137 93t22.5 67.5t-13.5 91t-50 82t-66.5 40t-95.5 -76.5t-85.5 -171.5z " />
<glyph unicode="3" d="M68 346l225 154q20 -106 93 -192.5t113 -86.5t85 84q16 33 16 115t-27 117q-96 109 -208 127v137q113 41 184 96q31 23 31 111q0 39 -41 74.5t-68 35.5t-85 -75.5t-77 -168.5l-221 127q29 131 156 257t231 126q68 0 207 -107.5t158 -162.5q14 -39 14 -154.5t-23 -144.5 q-39 -47 -100 -80q96 -76 119.5 -113.5t23.5 -184t-26.5 -199t-166.5 -158t-206 -105.5q-111 0 -244.5 121t-162.5 250z" />
<glyph unicode="4" horiz-adv-x="989" d="M76 426q43 182 130 414.5t162.5 388t98.5 155.5q33 0 190.5 -93t173.5 -124v-651h82v-225h-82v-291h-262v291h-260zM367 516h202v582q-96 -224 -202 -582z" />
<glyph unicode="5" d="M68 344l235 164q20 -106 89 -196.5t104 -90.5q43 0 88 84q16 33 16 120t-25 112q-66 66 -195.5 132t-268.5 99l36 592h699v-225h-445l-10 -201q258 -92 451 -275q33 -31 32.5 -195.5t-36 -222t-167.5 -162t-196 -104.5q-111 0 -244.5 120t-162.5 249z" />
<glyph unicode="6" d="M76 524.5q0 192.5 24.5 308t94 212t159.5 167t256 172.5l215 -151q-190 -70 -317 -184q94 -45 204.5 -138.5t136 -141.5t25.5 -240.5t-27.5 -254t-164.5 -180.5t-206.5 -119t-207 119t-170.5 193q-22 45 -22 237.5zM350 537q0 -170 16.5 -200t50.5 -62.5t58.5 -32.5 t60 34.5t50 66.5t14.5 173t-46 201.5t-181 107.5l-11 -41q-12 -77 -12 -247z" />
<glyph unicode="7" d="M76 1145v215h760q39 -137 38 -215l-512 -1170q-27 0 -107.5 37t-113.5 66l465 1067h-530z" />
<glyph unicode="8" d="M76 433.5q0 146.5 22 184.5q35 49 121 97q-66 37 -100 80q-23 35 -23 160.5t13 158.5q27 63 160.5 166.5t202.5 103.5t207 -107.5t163 -162.5q12 -31 12 -158t-23 -161q-35 -43 -100 -80q86 -47 121 -97q23 -39 22.5 -185t-22.5 -187q-49 -68 -180 -169.5t-196.5 -101.5 t-197 101.5t-180.5 169.5q-22 41 -22 187.5zM350 431q0 -58 8 -124q4 -25 46 -65.5t71 -40.5t71 41t46 65q8 66 8 124t-8 106q-4 23 -46 59.5t-71 36.5t-71 -37t-46 -59q-8 -48 -8 -106zM371 994.5q0 -9.5 6 -89.5q4 -33 39 -68.5t59.5 -35.5t59 35.5t38.5 68.5 q6 80 6.5 89.5t-6.5 70.5q-4 31 -38.5 62.5t-59 31.5t-59.5 -31.5t-39 -62.5q-6 -61 -6 -70.5z" />
<glyph unicode="9" d="M76 860q0 141 33 215q31 74 165 191.5t202.5 117.5t205.5 -117.5t170 -191.5q23 -45 22.5 -222t-20.5 -282.5t-55 -182.5t-108 -149.5t-146.5 -127t-202.5 -136.5l-217 150q225 86 354 248q-88 10 -207.5 113.5t-157.5 168t-38 205.5zM350 864q0 -121 49.5 -184.5 t184.5 -89.5q16 33 16 218t-16 206q-20 35 -53 69.5t-56.5 34.5t-57.5 -35.5t-50.5 -66.5t-16.5 -152z" />
<glyph unicode=":" horiz-adv-x="579" d="M113 138.5q0 23.5 80.5 91t102 67.5t101.5 -67.5t80 -91t-80 -93.5t-102.5 -70t-102 70t-79.5 93.5zM135 775.5q0 23.5 81 91t102.5 67.5t101.5 -67.5t80 -91t-80 -93.5t-102.5 -70t-102.5 70t-80 93.5z" />
<glyph unicode=";" horiz-adv-x="579" d="M115 -190q0 33 114 221q-92 76 -92 102.5t81 95t102.5 68.5t101.5 -68.5t80 -93.5q0 -51 -161 -214t-177 -163q-6 0 -27.5 21t-21.5 31zM135 775.5q0 23.5 81 91t102.5 67.5t101.5 -67.5t80 -91t-80 -93.5t-102.5 -70t-102.5 70t-80 93.5z" />
<glyph unicode="&#x3c;" horiz-adv-x="1003" d="M113 614.5q0 47.5 273 284t307 236.5t116 -73t82 -99q0 -8 -76 -68q-268 -207 -334 -281q66 -74 238 -207t172 -141q0 -25 -83 -98.5t-116 -73.5t-306 236.5t-273 284z" />
<glyph unicode="=" horiz-adv-x="1011" d="M113 291v241h786v-241h-786zM113 696v242h786v-242h-786z" />
<glyph unicode="&#x3e;" horiz-adv-x="1003" d="M113 266q0 8 75 68q268 207 334 280q-66 74 -237.5 207t-171.5 142q0 27 81.5 99.5t115.5 72.5t307.5 -236.5t273.5 -284t-273.5 -284t-306 -236.5t-115.5 73.5t-83 98.5z" />
<glyph unicode="?" horiz-adv-x="1054" d="M115 1065q29 131 163 262t244 131q72 0 211 -114.5t187 -190.5q23 -37 22.5 -172t-23 -178t-131 -144.5t-129 -129t-20.5 -70.5v-72h-270v92q0 90 24.5 128t76.5 92.5t108.5 109.5t73 74.5t16.5 113.5q0 55 -62.5 120t-93.5 65t-86 -84t-76 -195zM311 146.5q0 25.5 85 96 t107.5 70.5t106.5 -70.5t84 -96t-84 -98.5t-107.5 -73t-107.5 73t-84 98.5z" />
<glyph unicode="@" horiz-adv-x="1318" d="M113 678v78q0 250 38.5 342t225 226t284 134t283.5 -134t219 -218q43 -113 43 -350v-78q0 -201 -22 -268q-10 -29 -68.5 -87.5t-82 -58.5t-104.5 54.5t-104 82.5q-152 -133 -211 -133q-29 0 -134 109.5t-119.5 151.5t-14.5 210t27 215q39 76 133 140.5t149.5 64.5 t161 -87t123.5 -126t18 -183.5t9 -180.5q8 -72 67 -127q29 53 29 223v78q0 219 -37 289.5t-160 165t-204.5 94.5t-212 -96.5t-156.5 -164.5q-37 -102 -37 -288v-78q0 -178 37 -289q23 -68 154 -164t200.5 -96t145.5 43l120 -88q-166 -109 -259 -109t-279.5 134.5 t-218.5 218.5q-43 112 -43 350zM559 723q0 -145 25 -186q10 -16 32.5 -36t36 -20t44 19.5t38.5 34.5l13 34l-3 258q0 43 -35.5 85t-52 42t-44 -22.5t-41 -43t-13.5 -165.5z" />
<glyph unicode="A" horiz-adv-x="1052" d="M102 0v838q0 209 23 268q35 86 180.5 219t221 133t221 -133t180.5 -219q23 -59 22 -268v-838h-282v307h-283v-307h-283zM385 553h283v285q0 168 -16.5 205.5t-56.5 79.5t-68.5 42t-68.5 -42t-56.5 -79.5t-16.5 -205.5v-285z" />
<glyph unicode="B" horiz-adv-x="1093" d="M20 1270l271 188q49 -41 78 -112q139 113 195.5 112.5t180 -108t154.5 -151.5t31 -144.5t-31 -150.5t-113 -128q129 -106 183 -178q23 -37 22.5 -138.5t-22.5 -131.5q-37 -80 -178.5 -204t-223.5 -124h-424v877q0 166 -23.5 233.5t-99.5 159.5zM420 1159q6 -80 6 -164 v-145h104q23 0 57 40t46 70.5t12 73.5t-41 97.5t-75.5 54.5t-108.5 -27zM426 248h141q27 0 66 42t56.5 73.5t17.5 130.5q0 68 -103 129h-178v-375z" />
<glyph unicode="C" horiz-adv-x="980" d="M51 621v192q0 256 41 327.5t175 194.5t200 123q113 0 258 -130t184 -286l-227 -157q-33 111 -104.5 204t-100.5 93q-51 0 -117 -101q-27 -39 -26 -268v-192q0 -236 26 -269q66 -100 117 -100q29 0 100.5 81t104.5 179l227 -160q-39 -141 -184 -259t-258 -118 q-66 0 -200 123t-175 195t-41 328z" />
<glyph unicode="D" horiz-adv-x="1093" d="M20 1270l271 188q43 -33 76 -106q135 106 204.5 106t216 -134t181.5 -218q23 -53 22 -268v-242q0 -215 -22 -268q-37 -80 -178.5 -204t-223.5 -124h-424v877q0 166 -23.5 233.5t-99.5 159.5zM420 1126q6 -43 6 -131v-747h141q29 0 69 42t56.5 80t16.5 205v263 q0 168 -16.5 205.5t-56.5 79.5t-69 42q-59 0 -147 -39z" />
<glyph unicode="E" horiz-adv-x="925" d="M102 0v1262l283 196h457v-250h-381l-76 -53v-283h367v-247h-367v-377h489v-248h-772z" />
<glyph unicode="F" horiz-adv-x="976" d="M143 0v817q0 252 41 323.5t175.5 194.5t199.5 123q90 0 223 -71.5t199 -161.5l-227 -158q-115 115 -185 115q-27 0 -61.5 -34t-58 -72t-23.5 -191v-47h367v-248h-367v-590h-283z" />
<glyph unicode="G" horiz-adv-x="983" d="M51 596v217q0 256 41 327.5t175 194.5t200 123q113 0 258 -131t184 -287l-227 -157q-33 111 -104.5 205t-100.5 94q-51 0 -117 -101q-27 -39 -26 -268v-217q0 -168 16.5 -206t56 -80t70.5 -42t78 43t66 78q12 35 14 103h-141v227h407v-719h-199l-24 139 q-141 -164 -209 -164t-214 134.5t-181 218.5q-23 53 -23 268z" />
<glyph unicode="H" horiz-adv-x="1093" d="M20 1286l246 172q66 -43 113 -158.5t47 -279.5v-119h283v533h282v-1434h-282v655h-283v-655h-283v877q0 174 -23.5 242.5t-99.5 166.5z" />
<glyph unicode="I" horiz-adv-x="512" d="M115 0v1434h282v-1434h-282z" />
<glyph unicode="J" horiz-adv-x="919" d="M20 270l228 160q2 -2 17.5 -23.5t27.5 -37t31 -33.5q39 -43 66.5 -43t62 33.5t58.5 70.5t24 224v813h282v-813q0 -256 -41 -328t-175 -195t-209 -123t-194 88t-178 207z" />
<glyph unicode="K" horiz-adv-x="1093" d="M20 1286l246 172q66 -43 113 -158.5t47 -279.5v-119h61q35 0 73 38t57.5 71.5t40 194.5t20.5 229h283q0 -80 -23 -250t-41 -209q-31 -68 -156 -182q145 -125 189 -211q20 -43 41.5 -259.5t21.5 -322.5h-282q0 96 -19.5 302t-38.5 239q-63 115 -149 114h-78v-655h-283v897 q0 166 -23.5 230.5t-99.5 158.5z" />
<glyph unicode="L" horiz-adv-x="798" d="M31 0v1434h282v-1188h465v-246h-747z" />
<glyph unicode="M" horiz-adv-x="1503" d="M20 1286l246 172q66 -47 94 -112q147 113 209 112.5t232 -158.5q170 158 239 158q51 0 175 -107.5t155 -151.5t31 -116v-1083h-283v1042q0 39 -14 60.5t-48 52.5t-59.5 31t-81.5 -68q2 -10 3 -35v-1083h-283v1042q0 35 -13.5 58.5t-44 54.5t-49.5 31q-41 0 -108 -82 q6 -51 6 -109v-995h-283v877q0 174 -23.5 243.5t-99.5 165.5z" />
<glyph unicode="N" horiz-adv-x="1064" d="M20 1286l246 172q59 -39 111 -133q162 133 219 133t181 -107.5t155 -151.5t31 -116v-1083h-285v1042q0 18 -15.5 46t-47 63t-59.5 35t-69 -32t-63 -71l2 -88v-995h-283v877q0 172 -23.5 241.5t-99.5 167.5z" />
<glyph unicode="O" d="M51 596v242q0 215 23 268q35 84 181 218t220 134t220.5 -134t181.5 -218q23 -53 22 -268v-242q0 -215 -22 -268q-35 -84 -181.5 -218.5t-220.5 -134.5t-220 134.5t-181 218.5q-23 53 -23 268zM334 596q0 -168 16.5 -206t56 -80t68.5 -42t69 42t56 80t16 206v242 q0 168 -16 205.5t-56 79.5t-69 42t-68.5 -42t-56 -79.5t-16.5 -205.5v-242z" />
<glyph unicode="P" horiz-adv-x="1044" d="M20 1284l246 174q53 -37 94 -121q168 121 240 121t199 -114.5t172 -192.5q23 -29 22.5 -199t-22.5 -215q-45 -78 -172 -192.5t-199 -114.5h-82v264h41q39 0 91 38t66.5 83t14.5 121t-14.5 126t-66.5 87t-100 37t-130 -53q6 -68 6 -138v-995h-283v877q0 172 -23.5 242.5 t-99.5 164.5z" />
<glyph unicode="Q" d="M51 535v303q0 215 23 268q35 84 181 218t220 134t220.5 -134t181.5 -218q23 -53 22 -268v-242q0 -215 -19.5 -262t-98.5 -128t-165 -122q92 -68 117 -68q49 0 101 58l190 -133q-78 -82 -161 -143.5t-130 -61.5q-74 0 -221 97t-291 243q49 35 119 83t99.5 69.5t66.5 52.5 q61 51 94 108q16 33 16 207v242q0 168 -16 205.5t-56 79.5t-69 42t-68.5 -42t-56 -79.5t-16.5 -205.5v-303q0 -154 12 -211l-213 -148q-41 53 -61.5 98.5t-20.5 260.5z" />
<glyph unicode="R" horiz-adv-x="1093" d="M20 1286l246 172q66 -43 103 -112q164 113 223 112.5t183 -108t155 -151.5t31 -116q0 -139 -23 -165q-43 -66 -133 -154q125 -119 156 -182q16 -43 34.5 -261.5t18.5 -320.5h-307q0 92 -16.5 288.5t-36 237.5t-46.5 72h-182v-598h-283v897q0 166 -23.5 230.5t-99.5 158.5 zM420 1159q6 -80 6 -164v-157h80q29 0 74 45t58 76.5t13 66.5t-13 62.5t-38 62.5t-41 35q-55 0 -139 -27z" />
<glyph unicode="S" d="M41 352l227 156q33 -96 104.5 -176t101.5 -80t63.5 19.5t52.5 39.5q27 33 26.5 102.5t-32.5 86.5q-41 35 -159 92t-218.5 123.5t-128 130t-27.5 165t45 177.5q41 59 174 164.5t197 105.5q113 0 258 -117.5t184 -259.5l-227 -157q-33 96 -104.5 177t-101.5 81t-64.5 -18.5 t-56 -46t-21.5 -94.5t41 -89q33 -29 149 -90q299 -164 353 -266q23 -37 22.5 -146.5t-45.5 -185.5q-41 -59 -174 -165t-197 -106q-113 0 -258 118t-184 259z" />
<glyph unicode="T" horiz-adv-x="864" d="M25 1188v246h815v-246h-267v-1188h-282v1188h-266z" />
<glyph unicode="U" horiz-adv-x="1093" d="M20 1286l246 172q66 -43 113 -167t47 -296v-399q0 -168 16.5 -206t56.5 -80t68.5 -42t68.5 42t56.5 80t16.5 206v838h282v-838q0 -215 -22 -268q-35 -84 -181.5 -218.5t-220 -134.5t-220 134.5t-181.5 218.5q-23 53 -23 268v297q0 166 -23.5 233.5t-99.5 159.5z" />
<glyph unicode="V" horiz-adv-x="1011" d="M92 657v777h283v-797q0 -115 13 -173t60.5 -127t68 -69t67.5 69t60 127t13 173v240q0 172 -23.5 239.5t-98.5 165.5l245 176q66 -43 113 -167t47 -296v-338q0 -160 -30.5 -262t-175 -261t-218.5 -159t-218 159t-175 261t-31 262z" />
<glyph unicode="W" horiz-adv-x="1511" d="M92 657v777h283v-777q0 -133 14 -184t55 -128t56.5 -77t56.5 77t54.5 137.5t13.5 174.5v777h282v-777q0 -115 13.5 -175t54.5 -137t56.5 -77t56 77t55 137.5t14.5 174.5v220q0 172 -23.5 240.5t-99.5 168.5l246 172q66 -45 113 -168t47 -295v-338q0 -160 -31 -263 t-169 -261t-208 -158q-43 0 -119.5 78t-146.5 183q-74 -106 -148.5 -183.5t-117.5 -77.5q-70 0 -208 158t-169 261t-31 263z" />
<glyph unicode="X" horiz-adv-x="1040" d="M6 1286l246 172q61 -35 96 -113.5t44 -157.5t41 -162t87 -124q35 6 73 58.5t50 89t26.5 183t14.5 202.5h283q0 -72 -15.5 -227.5t-27.5 -190.5q-23 -70 -176 -223q76 -72 135 -150t72.5 -120t28.5 -237.5t15 -285.5h-282q0 74 -14.5 261.5t-22.5 217.5 q-18 49 -75.5 112.5t-84 63.5t-84 -63.5t-72 -103t-27.5 -225t-13 -263.5h-283q0 90 15.5 285.5t28.5 237.5t72.5 120t135.5 150q-76 41 -120 115.5t-54 142.5q-31 182 -113 235z" />
<glyph unicode="Y" horiz-adv-x="991" d="M72 1087v347h282v-347q0 -104 17.5 -146t61.5 -101.5t62.5 -59.5t63.5 60.5t61.5 99.5t16.5 147v347h283v-347q0 -164 -27 -215t-102.5 -142t-153.5 -157v-573h-283v573q-80 66 -154.5 157t-101 143t-26.5 214z" />
<glyph unicode="Z" horiz-adv-x="917" d="M51 0v205l504 983h-479v246h790v-205l-506 -983h506v-246h-815z" />
<glyph unicode="[" horiz-adv-x="804" d="M113 -375v1774q8 18 111.5 77.5t125.5 59.5q260 0 342 -53l-88 -193q-61 20 -205 21v-1598q143 0 205 21l88 -193q-82 -53 -342 -53q-23 0 -126 59.5t-111 77.5z" />
<glyph unicode="\" horiz-adv-x="1269" d="M113 1413q27 35 112.5 79t112.5 44l819 -1925q-27 -35 -113 -79t-112 -44z" />
<glyph unicode="]" horiz-adv-x="804" d="M113 -459l88 193q61 -20 205 -21v1598q-143 0 -205 -21l-88 193q82 53 342 53q23 0 126 -59.5t111 -77.5v-1774q-8 -18 -111.5 -77.5t-125.5 -59.5q-260 0 -342 53z" />
<glyph unicode="^" horiz-adv-x="1265" d="M113 471q0 33 236.5 288t283.5 255t283.5 -255t236.5 -288q0 -20 -72.5 -76.5t-99.5 -56.5q-10 0 -71.5 60.5t-147.5 145.5t-129 122q-43 -37 -129 -122t-147.5 -145.5t-71.5 -60.5q-25 0 -98.5 56.5t-73.5 76.5z" />
<glyph unicode="_" horiz-adv-x="989" d="M113 -348h764v-164h-764v164z" />
<glyph unicode="`" horiz-adv-x="610" d="M113 1403q0 20 66.5 76.5t86 56.5t126 -131t106.5 -144.5t-31 -43t-45 -29.5t-161.5 93t-147.5 122z" />
<glyph unicode="a" horiz-adv-x="966" d="M61 552q0 224 27 291.5t136.5 176t158.5 108.5q72 0 231 -147l25 123h201v-840q12 -72 96 -127l-184 -157q-27 18 -66 65t-65 96q-170 -166 -238 -166q-49 0 -158.5 109t-136.5 176.5t-27 291.5zM322 552q0 -208 26 -245q8 -20 34 -48t48.5 -28t66.5 28t57 50.5t15 239.5 q0 217 -14 242.5t-58 53t-66.5 27.5t-48.5 -26.5t-34 -48.5q-26 -37 -26 -245z" />
<glyph unicode="b" horiz-adv-x="958" d="M31 1378l225 158q147 -117 147 -330v-186q123 109 177.5 108.5t166 -110t127.5 -160.5q23 -51 23 -306t-23 -306q-16 -51 -127.5 -161t-160.5 -110q-72 0 -230 150l-22 -125h-201v1118q0 104 -24.5 159.5t-77.5 100.5zM399 550q0 -212 14.5 -237.5t58.5 -53.5t66.5 -28 t48 27t38 55.5t12.5 238.5t-12.5 237.5t-38 55t-47 27.5t-65.5 -27.5t-58 -47.5q-17 -35 -17 -247z" />
<glyph unicode="c" horiz-adv-x="817" d="M61 551q0 258 43 328q31 51 152 150t187.5 99t180 -78.5t171.5 -179.5l-211 -145q-27 49 -73 108.5t-69 59.5q-41 0 -94 -86q-27 -53 -26.5 -255t26.5 -255q16 -27 43 -56.5t53.5 -29.5t69.5 47t70 121l211 -148q-55 -102 -169 -179t-181.5 -77t-188.5 99.5t-152 150.5 q-43 68 -43 326z" />
<glyph unicode="d" horiz-adv-x="890" d="M61 552q0 255 23 306q16 51 128 160.5t165 109.5t182 -110v100q0 104 -24.5 159.5t-77.5 100.5l225 158q147 -117 147 -330v-1206h-208l-25 121q-150 -145 -223 -146q-49 0 -161 110t-128 161q-23 51 -23 306zM322 552q0 -210 12 -237.5t37.5 -55.5t47 -28t65.5 28t59 48 q12 29 16 166v76q0 217 -14.5 242.5t-58.5 53t-66.5 27.5t-48 -26.5t-37.5 -55t-12 -238.5z" />
<glyph unicode="e" horiz-adv-x="909" d="M61 552q0 239 29 299t161 168.5t193.5 108.5t193.5 -108.5t160.5 -168.5t28.5 -296v-74h-495q0 -123 30 -194q10 -25 37 -50.5t55.5 -25.5t71.5 49t68 119l211 -150q-55 -102 -169 -178t-183.5 -76t-201.5 109t-161 169t-29 299zM332 676h233q-6 109 -21.5 136.5t-47 54 t-59 26.5t-62.5 -54t-43 -163z" />
<glyph unicode="f" horiz-adv-x="712" d="M31 809v154l102 24q0 229 22.5 280.5t155.5 160t195.5 108.5t157 -58.5t141.5 -134.5l-201 -135q-57 92 -98 92q-20 0 -47 -26.5t-41.5 -55t-14.5 -194.5h291v-215h-291v-809h-270v809h-102z" />
<glyph unicode="g" horiz-adv-x="897" d="M61 592q0 211 22.5 265t131.5 162.5t166 108.5t219 -131l25 107h200v-1036q0 -262 -23.5 -312.5t-164.5 -159t-212 -108.5t-177.5 70.5t-159.5 162.5l211 146l20 -27q76 -96 106 -96t67.5 26.5t51 56.5t13.5 251l6 80q-139 -100 -189 -100.5t-159 108t-131.5 162 t-22.5 264.5zM322 592q0 -172 16 -203q8 -20 33.5 -48t48 -28t66.5 28t58.5 51.5t14.5 200.5t-15.5 201.5t-58.5 51t-65.5 26.5t-48 -26.5t-33.5 -48.5q-16 -33 -16 -205z" />
<glyph unicode="h" horiz-adv-x="1030" d="M31 1378l225 158q147 -117 147 -330v-190q127 113 184.5 112.5t183.5 -114t126 -223.5v-396q0 -104 24.5 -161.5t77.5 -100.5l-225 -158q-147 117 -147 332v455q0 35 -37 72.5t-69 37.5t-118 -86v-786h-270v1118q0 104 -24.5 159.5t-77.5 100.5z" />
<glyph unicode="i" horiz-adv-x="454" d="M43 1373.5q0 23.5 79 91t100.5 67.5t99 -66.5t77.5 -90t-78.5 -91t-100 -67.5t-99.5 66.5t-78 90zM82 307v797h270v-709q0 -104 24.5 -161.5t78.5 -100.5l-226 -158q-147 117 -147 332z" />
<glyph unicode="j" horiz-adv-x="548" d="M-276 -279l210 146l21 -27q76 -96 103.5 -96t59.5 26.5t45 53t13 192.5v691q0 104 -24.5 161.5t-77.5 100.5l225 157q147 -117 147 -331l-2 -727q0 -258 -30 -310q-23 -53 -156 -161.5t-200.5 -108.5t-174 70.5t-159.5 162.5zM88 1373.5q0 23.5 79 91t100.5 67.5 t99 -66.5t77.5 -90t-78.5 -91t-100 -67.5t-99.5 66.5t-78 90z" />
<glyph unicode="k" horiz-adv-x="1030" d="M31 1378l225 158q147 -117 147 -330v-233q160 156 213.5 155.5t188.5 -117t139 -182.5q0 -47 -64.5 -159.5t-123.5 -171.5q150 -184 190 -342l-258 -181q-47 166 -98 275.5t-144 206.5v71q63 45 135 132.5t83 134.5q-57 78 -99 77q-23 0 -75 -44t-87 -83v-745h-270v1118 q0 104 -24.5 159.5t-77.5 100.5z" />
<glyph unicode="l" horiz-adv-x="475" d="M72 307v1229h270v-1141q0 -104 24.5 -161.5t77.5 -100.5l-225 -158q-147 117 -147 332z" />
<glyph unicode="m" horiz-adv-x="1439" d="M31 969l225 157q68 -57 100 -116q133 119 185 118q31 0 100.5 -45t126.5 -108q162 154 224.5 153.5t188.5 -114t126 -223.5v-396q0 -104 24.5 -161.5t77.5 -100.5l-225 -158q-147 117 -148 332v455q0 35 -36.5 72.5t-60.5 37.5t-87 -51q4 -20 4 -30v-791h-270v762 q0 35 -37 72.5t-62.5 37.5t-83.5 -49v-823h-270v707q0 104 -24.5 161.5t-77.5 100.5z" />
<glyph unicode="n" horiz-adv-x="1030" d="M31 969l225 157q76 -61 113 -141q152 143 214 143t188 -113.5t126 -223.5v-396q0 -104 24.5 -161.5t77.5 -100.5l-225 -158q-147 117 -147 332v455q0 35 -37 72.5t-69 37.5t-118 -86v-786h-270v707q0 104 -24.5 161.5t-77.5 100.5z" />
<glyph unicode="o" horiz-adv-x="888" d="M61 553q0 252 43 326q29 49 155 149t185.5 100t185.5 -100t154 -149q43 -74 43 -326t-43 -328q-29 -49 -154.5 -149.5t-185 -100.5t-185.5 100.5t-155 149.5q-43 76 -43 328zM322 553q0 -209 26 -256q14 -25 46 -55.5t50.5 -30.5t50 30.5t46.5 55.5q27 45 26.5 254 t-26.5 256q-14 25 -46 55.5t-50.5 30.5t-50.5 -31t-46 -55q-26 -45 -26 -254z" />
<glyph unicode="p" horiz-adv-x="972" d="M31 971l225 157q57 -47 106 -147q160 147 228 147q49 0 158.5 -108.5t136 -176t26.5 -291.5t-26.5 -291.5t-136 -176.5t-165 -109t-180.5 111v-178q0 -104 25 -161.5t78 -100.5l-225 -158q-147 117 -148 332v870q0 195 -102 281zM403 553q0 -215 14.5 -240.5t58.5 -53.5 t74 -28t75 76q27 47 26.5 245t-26.5 245q-12 23 -36 49t-45.5 26t-66.5 -27.5t-59.5 -52t-14.5 -239.5z" />
<glyph unicode="q" horiz-adv-x="897" d="M61 552q0 255 23 306q16 51 128 160.5t161 109.5q74 0 227 -149l25 125h200v-1616h-270v594q-125 -106 -178 -106.5t-165 109.5t-128 161q-23 51 -23 306zM322 552q0 -210 12 -237.5t37.5 -55.5t47 -28t65.5 28t59 48q16 35 16 247t-14.5 237.5t-58.5 53t-66.5 27.5 t-48 -26.5t-37.5 -55t-12 -238.5z" />
<glyph unicode="r" horiz-adv-x="784" d="M31 971l225 157q74 -61 113 -143q152 143 213 143q41 0 125 -75.5t98 -165.5l-219 -158q-2 49 -23.5 96t-38.5 47q-35 0 -121 -86v-786h-270v707q0 104 -25.5 162.5t-76.5 101.5z" />
<glyph unicode="s" horiz-adv-x="833" d="M41 229l211 146q102 -143 149 -144q35 0 86.5 35t51.5 66q0 8 -49.5 35.5t-120 69.5t-140 94.5t-119 128t-49.5 153.5t139.5 196.5t214 118.5t188.5 -75.5t169 -178.5l-211 -145q-102 143 -149 143q-25 0 -61 -27.5t-36 -50t75 -69.5t164 -97t164 -131t75 -165 q0 -63 -158 -210t-234.5 -147t-190.5 76t-169 178z" />
<glyph unicode="t" horiz-adv-x="700" d="M31 889v153l102 25q-4 100 -24.5 158.5t-77.5 113.5l225 158q147 -117 147 -332v-61h230v-215h-230v-453q0 -96 66 -176t180 -127l-225 -158q-123 57 -207 159t-84 214v541h-102z" />
<glyph unicode="u" horiz-adv-x="948" d="M82 313v791h270v-762q0 -35 33 -73t61.5 -38t118.5 84v789h271v-1104h-209l-25 121q-154 -145 -215 -145.5t-183 113t-122 224.5z" />
<glyph unicode="v" horiz-adv-x="929" d="M70 621v483h270v-483q0 -215 15.5 -253t51 -77t58 -39t58.5 39t51.5 77t15.5 253v88q0 104 -24.5 161.5t-78.5 100.5l226 157q147 -117 147 -331v-176q0 -246 -26.5 -305.5t-165 -200t-204 -140.5t-204.5 140.5t-164.5 202t-25.5 303.5z" />
<glyph unicode="w" horiz-adv-x="1368" d="M70 621v483h270v-483q0 -215 14.5 -254t43 -77t47 -38t46 38t43 74.5t15.5 182.5v557h270v-483q0 -215 14.5 -254t43 -77t47 -38t46 38t43 74.5t15.5 256.5v88q0 176 -82 262l205 157q147 -117 147 -331v-176q0 -246 -25.5 -305.5t-156.5 -200t-192 -140.5 q-74 0 -240 232q-166 -231 -240 -232q-61 0 -193 141.5t-156.5 205t-24.5 299.5z" />
<glyph unicode="x" horiz-adv-x="933" d="M72 0v104q0 197 27.5 268.5t179.5 227.5q-139 160 -168 229.5t-29 231.5v43h270v-43q0 -113 16.5 -159t51.5 -107.5t47 -61.5t47 61.5t51.5 107.5t16.5 159v43h270v-43q0 -162 -23 -215q-45 -98 -176 -246q63 -63 117.5 -134t73 -118t18.5 -244v-104h-270v104 q0 154 -17 197q-14 43 -54 99.5t-55 56.5t-54 -57.5t-54.5 -99.5t-15.5 -196v-104h-270z" />
<glyph unicode="y" horiz-adv-x="999" d="M31 971l225 157q147 -117 147 -331v-414q0 -35 39 -73t68 -38t106 84v748h271v-1036q0 -244 -31 -303.5t-161 -168t-197.5 -108.5t-174 70.5t-159.5 162.5l211 146l22 -27q74 -96 101.5 -96t59.5 26.5t45 53t13 192.5v111q-115 -111 -171 -111t-184 114t-128 224v355 q0 104 -24.5 161.5t-77.5 100.5z" />
<glyph unicode="z" horiz-adv-x="851" d="M41 0v174l416 715h-396v215h721v-146l-438 -727h148q109 0 200 82l139 -166q-53 -72 -143 -109.5t-182 -37.5h-465z" />
<glyph unicode="{" horiz-adv-x="843" d="M72 455v114q86 59 114.5 102.5t28.5 147.5v236q0 160 61.5 255t227.5 226l227 -162q-141 -86 -175 -134t-34 -165v-231q0 -205 -200 -332q201 -127 200 -332v-231q0 -117 34 -165t175 -134l-227 -162q-166 131 -227.5 226.5t-61.5 254.5v236q0 104 -28.5 147.5 t-114.5 102.5z" />
<glyph unicode="|" horiz-adv-x="409" d="M113 -512v2048h184v-2048h-184z" />
<glyph unicode="}" horiz-adv-x="843" d="M113 -350q141 86 175 134t34 165v231q0 205 200 332q-201 127 -200 332v231q0 117 -34 165t-175 134l227 162q166 -131 227.5 -226.5t61.5 -254.5v-236q0 -104 28.5 -147t114.5 -103v-114q-86 -59 -114.5 -102.5t-28.5 -147.5v-236q0 -160 -61.5 -255t-227.5 -226z" />
<glyph unicode="~" horiz-adv-x="1114" d="M113 571q0 35 141 135.5t174 100.5q16 0 121.5 -57.5t136.5 -65.5q33 8 92.5 55t75.5 47t81.5 -48t65.5 -64q0 -35 -141 -135.5t-166.5 -100.5t-130 57.5t-135.5 65.5q-33 -8 -92.5 -55t-75.5 -47t-81.5 48t-65.5 64z" />
<glyph unicode="&#xa1;" horiz-adv-x="608" d="M113 957.5q0 25.5 84 98t107.5 72.5t107.5 -72.5t84 -98t-85 -96t-107.5 -70.5t-106.5 70.5t-84 96zM154 580l194 137q63 -78 76 -334l27 -739h-283q16 616 16.5 737t-30.5 199z" />
<glyph unicode="&#xa2;" horiz-adv-x="866" d="M72 719q0 207 22 244q16 35 105.5 112.5t171.5 122.5v236h184v-220q82 -31 165 -95t126 -140l-232 -160l-16 23q-90 115 -133 114q-20 0 -52 -26.5t-46.5 -53t-14.5 -159.5t14.5 -160t46 -53.5t48 -26.5t35 11.5t36.5 31.5q33 31 66 72l16 22l232 -159 q-43 -76 -126 -140.5t-165 -95.5v-219h-184v233q-82 45 -171 123t-108.5 117t-19.5 246z" />
<glyph unicode="&#xa3;" horiz-adv-x="1097" d="M113 0v246h180v205h-180v225h176q-4 33 -51.5 174t-47.5 289q8 35 150.5 140t176.5 105t178.5 -101t209.5 -183l-233 -135q-49 61 -158 122q0 -113 30.5 -203.5t30.5 -185.5v-22h228v-225h-228v-205h410v-246h-872z" />
<glyph unicode="&#xa4;" horiz-adv-x="1290" d="M113 266q0 12 125 105q-115 145 -115 241.5t119 243.5q-129 100 -129 107q0 27 81.5 99.5t106.5 72.5t141 -93q123 88 206 88t202 -86q115 90 139.5 90.5t106.5 -72.5t82 -99q0 -8 -127 -107q117 -143 116.5 -242.5t-116.5 -242.5q14 -10 29.5 -22.5t26.5 -21t22.5 -17.5 t19.5 -16t14 -11q14 -10 15 -17q0 -25 -83 -98.5t-106.5 -73.5t-136.5 86q-123 -88 -208 -88t-208 88q-106 -86 -131.5 -86t-108.5 73.5t-83 98.5zM393 611.5q0 -72.5 95.5 -176t157 -103.5t156.5 103.5t95 177t-96 178t-153.5 104.5t-156 -105.5t-98.5 -178z" />
<glyph unicode="&#xa5;" horiz-adv-x="1042" d="M92 1128v232h307v-232q0 -104 17.5 -147t47.5 -89t52.5 -46t54 48t47 87t15.5 147v232h307v-232q0 -160 -25.5 -212t-98.5 -144t-146 -158h209v-159h-209v-82h209v-160h-209v-213h-308v213h-208v160h208v82h-208v159h208q-76 66 -147.5 157t-97 143t-25.5 214z" />
<glyph unicode="&#xa6;" horiz-adv-x="409" d="M113 252l184 129v-893h-184v764zM113 682v854h184v-725z" />
<glyph unicode="&#xa7;" horiz-adv-x="1073" d="M113 803.5q0 58.5 28.5 103.5t94.5 111q-82 82 -82 152.5t23.5 118.5t153.5 147.5t203.5 99.5t193.5 -76t179 -178l-231 -160l-17 23q-90 115 -133 115q-23 0 -59.5 -20.5t-36.5 -33t26.5 -37t137.5 -84.5q287 -150 344 -245q23 -39 23 -129t-25 -124t-88 -93 q29 -27 50.5 -64t21.5 -114.5t-23 -110.5q-55 -72 -174 -151t-188.5 -79t-189.5 76t-179 178l231 160l17 -22q90 -115 133 -115q23 0 59.5 27.5t36.5 44t-28.5 39t-145.5 83t-212 123t-119.5 119.5t-24.5 115.5zM369 815q0 -27 20 -47q20 -16 244 -152q72 68 72 117 q0 12 -17 25q-63 49 -272 149q-47 -65 -47 -92z" />
<glyph unicode="&#xa8;" horiz-adv-x="933" d="M113 1402.5q0 20.5 67.5 77t85 56.5t84 -56.5t66.5 -77t-66.5 -76.5t-85 -56t-85 56t-66.5 76.5zM518 1402.5q0 20.5 67.5 77t85 56.5t84 -56.5t66.5 -77t-66.5 -76.5t-85 -56t-85 56t-66.5 76.5z" />
<glyph unicode="&#xa9;" horiz-adv-x="1359" d="M113 724q0 282 43 384q37 86 229.5 218t294.5 132t294.5 -132t229.5 -218q43 -102 43 -384t-43 -396q-20 -53 -119.5 -137.5t-218 -150t-186.5 -65.5t-186.5 65.5t-218 149.5t-119.5 138q-43 114 -43 396zM256 724q0 -245 25.5 -319.5t174 -178t224.5 -103.5t224.5 103.5 t174 178t25.5 319.5t-26.5 313.5t-174 173t-223.5 104.5t-223.5 -104.5t-174 -173t-26.5 -313.5zM406 647v144q0 135 12 161q25 51 119 131t143 80t142 -79.5t120 -131.5q12 -23 12 -137h-215q0 74 -23.5 105.5t-35.5 31.5q-27 0 -49 -57q-10 -27 -10 -104v-144 q0 -78 10 -104q25 -57 49 -58q12 0 29 21q31 39 30 117h215q0 -113 -12 -138q-25 -51 -119 -131t-143 -80t-143.5 80t-118.5 131q-12 27 -12 162z" />
<glyph unicode="&#xaa;" horiz-adv-x="811" d="M113 1041.5q0 154.5 13 184t109.5 95t141.5 65.5t145.5 -66.5t118.5 -96.5q14 -37 14 -171t6.5 -170t57.5 -71l-152 -115q-59 20 -108 66q-70 -66 -107 -66t-126 65.5t-101 95.5t-12 184.5zM319 1036q0 -92 7.5 -112.5t27 -38t29.5 -17.5t29.5 9.5t23.5 15.5 q10 35 10 135t-6 127t-26.5 43t-30.5 16t-30.5 -16t-27 -43t-6.5 -119z" />
<glyph unicode="&#xab;" horiz-adv-x="1146" d="M113 614.5q0 34.5 99 148.5t202.5 212t118 98t53.5 -29.5t39 -39.5q0 -33 -226 -390q225 -356 226 -389q0 -10 -39 -39.5t-53.5 -29.5t-118 98t-202.5 212t-99 148.5zM522 614.5q0 34.5 99.5 148.5t203 212t117.5 98t53 -29.5t39 -39.5q0 -33 -225 -390 q225 -356 225 -389q0 -10 -39 -39.5t-53 -29.5t-117.5 98t-203 212t-99.5 148.5z" />
<glyph unicode="&#xac;" horiz-adv-x="1193" d="M113 494v241h968v-389l-290 -80v228h-678z" />
<glyph unicode="&#xad;" horiz-adv-x="743" d="M113 532v164h518v-164h-518z" />
<glyph unicode="&#xae;" horiz-adv-x="1705" d="M113 724q0 282 43 384q37 86 229.5 218t294.5 132t294.5 -132t229.5 -218q43 -102 43 -384t-43 -396q-20 -53 -119.5 -137.5t-218 -150t-186.5 -65.5t-186.5 65.5t-218 149.5t-119.5 138q-43 114 -43 396zM256 724q0 -245 25.5 -319.5t174 -178t224.5 -103.5t224.5 103.5 t174 178t25.5 319.5t-26.5 313.5t-174 173t-223.5 104.5t-223.5 -104.5t-174 -173t-26.5 -313.5zM365 1055l161 114q31 -20 56 -69q80 68 113.5 67.5t114.5 -64t108 -97.5q12 -20 12 -81t-12 -81q-37 -45 -101 -92q90 -70 107.5 -103t31 -163t13.5 -193h-215q0 55 -12.5 173 t-22.5 136t-31 43h-55v-352h-215v526q0 98 -10 138.5t-43 97.5zM629 924q4 -20 4 -35v-66h33q23 0 41 45l8 47q-6 0 -8 -2q-23 45 -38 45.5t-40 -34.5z" />
<glyph unicode="&#xaf;" horiz-adv-x="931" d="M133 1245v191h666v-191h-666z" />
<glyph unicode="&#xb0;" horiz-adv-x="792" d="M72 1119q0 91 119.5 215t205.5 124t205 -124t119 -214t-119 -217t-207 -127t-205.5 126t-117.5 217zM285 1117q0 -40 40 -86t72.5 -46t72.5 47t40 87t-41 87t-71.5 47t-71.5 -48t-41 -88z" />
<glyph unicode="&#xb1;" horiz-adv-x="1011" d="M113 156v241h786v-241h-786zM113 643v242h260v190h266v-190h260v-242h-260v-190h-266v190h-260z" />
<glyph unicode="&#xb2;" horiz-adv-x="542" d="M31 690v150q0 82 17.5 107.5t118.5 72.5t118 59q10 10 10 72.5t-23 62.5q-4 0 -10 -8q-12 -16 -12 -96h-213q0 109 12 143q12 29 98 80t127 51t127 -53t99.5 -81.5t13.5 -129t-35 -130t-217 -109.5q-29 -16 -29 -37h275v-154h-477z" />
<glyph unicode="&#xb3;" horiz-adv-x="538" d="M20 913h203q0 -35 17.5 -50t25.5 -15t23 12q20 18 20 53t-14 50.5t-84 29.5v109q88 6 88 57q0 18 -8 36.5t-23.5 18.5t-27.5 -24q-6 -18 -7 -39h-202q0 84 16 108.5t99 74.5t124 50t131.5 -53t100.5 -82q6 -16 6 -83.5t-12 -75.5q-14 -20 -50 -41q45 -29 58.5 -47.5 t13.5 -87t-12 -99.5t-104.5 -83t-135.5 -52t-128 49t-101.5 73.5t-16.5 110.5z" />
<glyph unicode="&#xb4;" horiz-adv-x="610" d="M113 1260.5q0 13.5 106.5 144.5t126 131t86 -56.5t66.5 -76.5q0 -29 -147.5 -122t-162 -93t-45 29.5t-30.5 43z" />
<glyph unicode="&#xb6;" horiz-adv-x="1298" d="M113 1085.5q0 102.5 141 225.5t240 123h692v-271h-133q6 -43 6 -88v-1075h-185v1006q0 109 -20 157h-149q27 -117 26 -237v-670q0 -104 -28.5 -180t-67.5 -101l-162 115q45 55 59.5 95t14.5 141v409h-53q-96 0 -238.5 124t-142.5 226.5z" />
<glyph unicode="&#xb7;" horiz-adv-x="557" d="M113 568.5q0 23.5 80.5 91t102 67.5t101.5 -67.5t80 -91t-80 -93t-102.5 -69.5t-102 69.5t-79.5 93z" />
<glyph unicode="&#xb8;" horiz-adv-x="573" d="M113 -176q0 23 92 148.5t102 125.5q14 0 53 -21.5t39 -27.5q0 -20 -123 -164q59 -55 92 -83.5t54 -47.5q39 -39 39 -55t-122 -113.5t-135.5 -97.5t-52 39t-38.5 51t123 123q-123 111 -123 123z" />
<glyph unicode="&#xb9;" horiz-adv-x="630" d="M41 1165q39 61 131 140t112.5 79t105.5 -57t89 -76v-407h60v-154h-447v154h174v319q-45 -55 -67 -108z" />
<glyph unicode="&#xba;" horiz-adv-x="753" d="M113 1041.5q0 154.5 13 184t109.5 95t142.5 65.5t141 -64.5t108.5 -95t13.5 -185t-13.5 -185.5t-108.5 -95.5t-141 -64.5t-142.5 65.5t-109.5 95.5t-13 184.5zM319 1036q0 -92 7.5 -113.5t24 -38t26.5 -16.5t26.5 16.5t20.5 28.5q10 45 10 133.5t-7 112t-23.5 39.5 t-26.5 16t-26.5 -16t-24 -43t-7.5 -119z" />
<glyph unicode="&#xbb;" horiz-adv-x="1146" d="M113 225q0 33 225 389q-225 356 -225 390q0 10 38.5 39.5t53 29.5t118 -98t203 -212t99.5 -148.5t-99.5 -148.5t-203 -212t-118 -98t-53 29.5t-38.5 39.5zM522 225q0 33 226 389q-225 356 -226 390q0 10 39 39.5t53.5 29.5t118 -98t202.5 -212t99 -148.5t-99 -148.5 t-202.5 -212t-118 -98t-53.5 29.5t-39 39.5z" />
<glyph unicode="&#xbc;" horiz-adv-x="1495" d="M92 1165q39 61 131 140t112.5 79t105.5 -57t89 -76v-407h60v-154h-447v154h174v319q-45 -55 -67 -108zM336 98l778 1286q25 0 90.5 -43t93.5 -79l-778 -1287q-25 0 -90 43t-94 80zM860 236q27 90 85.5 201.5t108.5 183t64 71.5q20 0 125 -68.5t119 -91.5v-243h41v-164 h-41v-125h-213v125h-131zM1067 289h82v172q-55 -102 -82 -172z" />
<glyph unicode="&#xbd;" horiz-adv-x="1536" d="M92 1165q39 61 131 140t112.5 79t105.5 -57t89 -76v-407h60v-154h-447v154h174v319q-45 -55 -67 -108zM336 98l778 1286q25 0 90.5 -43t93.5 -79l-778 -1287q-25 0 -90 43t-94 80zM961 0v150q0 82 17 107.5t118.5 72.5t117.5 59q10 10 10.5 72.5t-22.5 62.5q-4 0 -10 -8 q-12 -16 -12 -96h-213q0 109 12 143q12 29 98 80t127 51t127 -53t99.5 -82t13.5 -129t-35 -130t-217 -110q-29 -16 -29 -36h275v-154h-477z" />
<glyph unicode="&#xbe;" horiz-adv-x="1423" d="M92 913h203q0 -35 17.5 -50t25.5 -15t22 12q20 18 20.5 53t-14 50.5t-83.5 29.5v109q88 6 88 57q0 18 -8.5 36.5t-23.5 18.5t-28 -24q-6 -18 -6 -39h-203q0 84 16.5 108.5t99.5 74.5t124 50t131 -53t100 -82q6 -16 6.5 -83.5t-12.5 -75.5q-14 -20 -49 -41 q45 -29 58.5 -47.5t13.5 -87t-12.5 -99.5t-104.5 -83t-135 -52t-128 49t-101.5 73.5t-16.5 110.5zM264 98l778 1286q25 0 90.5 -43t94.5 -79l-778 -1287q-25 0 -90.5 43t-94.5 80zM788 236q27 90 85.5 201.5t108.5 183t65 71.5q20 0 124.5 -68.5t118.5 -91.5v-243h41v-164 h-41v-125h-213v125h-131zM995 289h82v172q-55 -102 -82 -172z" />
<glyph unicode="&#xbf;" horiz-adv-x="1054" d="M113 123q0 135 22.5 178t131 144.5t129 129t20.5 70.5v72h270v-92q0 -92 -24.5 -129t-77 -91.5t-108.5 -109.5t-72.5 -74.5t-16.5 -114.5q0 -55 62.5 -119.5t93 -64.5t86 84t76.5 195l235 -162q-29 -131 -163 -262t-245 -131q-72 0 -211 114.5t-186 190.5q-22 37 -22 172 zM360 957.5q0 25.5 84 98t107.5 72.5t107.5 -72.5t84 -98t-85 -96t-107.5 -70.5t-106.5 70.5t-84 96z" />
<glyph unicode="&#xc0;" horiz-adv-x="1052" d="M102 0v838q0 209 23 268q35 86 180.5 219t221 133t221 -133t180.5 -219q23 -59 22 -268v-838h-282v307h-283v-307h-283zM272 1626.5q0 24.5 41 102t56 77.5q20 0 166.5 -85t146.5 -96t-16.5 -50t-24.5 -39q-37 0 -203 33t-166 57.5zM385 553h283v285q0 168 -16.5 205.5 t-56.5 79.5t-68.5 42t-68.5 -42t-56.5 -79.5t-16.5 -205.5v-285z" />
<glyph unicode="&#xc1;" horiz-adv-x="1052" d="M102 0v838q0 209 23 268q35 86 180.5 219t221 133t221 -133t180.5 -219q23 -59 22 -268v-838h-282v307h-283v-307h-283zM334 1625q0 11 146.5 96t166.5 85q14 0 55 -77.5t41 -102t-165.5 -57.5t-202.5 -33q-8 0 -24.5 39t-16.5 50zM385 553h283v285q0 168 -16.5 205.5 t-56.5 79.5t-68.5 42t-68.5 -42t-56.5 -79.5t-16.5 -205.5v-285z" />
<glyph unicode="&#xc2;" horiz-adv-x="1052" d="M102 0v838q0 209 23 268q35 86 180.5 219t221 133t221 -133t180.5 -219q23 -59 22 -268v-838h-282v307h-283v-307h-283zM252 1647q0 10 137 84.5t155.5 74.5t156 -74.5t137.5 -84.5q0 -16 -25 -63.5t-38 -47.5t-230 90q-229 -90 -232 -90q-10 0 -35.5 47.5t-25.5 63.5z M385 553h283v285q0 168 -16.5 205.5t-56.5 79.5t-68.5 42t-68.5 -42t-56.5 -79.5t-16.5 -205.5v-285z" />
<glyph unicode="&#xc3;" horiz-adv-x="1052" d="M102 0v838q0 209 23 268q35 86 180.5 219t221 133t221 -133t180.5 -219q23 -59 22 -268v-838h-282v307h-283v-307h-283zM201 1608.5q0 13.5 126 135.5t149.5 122t182.5 -123q160 123 178.5 123t57.5 -39t39 -52.5t-126 -135t-149.5 -121.5t-183.5 122 q-160 -123 -178 -122.5t-57 39t-39 52zM385 553h283v285q0 168 -16.5 205.5t-56.5 79.5t-68.5 42t-68.5 -42t-56.5 -79.5t-16.5 -205.5v-285z" />
<glyph unicode="&#xc4;" horiz-adv-x="1052" d="M102 0v838q0 209 23 268q35 86 180.5 219t221 133t221 -133t180.5 -219q23 -59 22 -268v-838h-282v307h-283v-307h-283zM174 1669.5q0 20.5 67.5 76.5t85 56t84 -56t66.5 -76.5t-66.5 -77t-85 -56.5t-85 56.5t-66.5 77zM385 553h283v285q0 168 -16.5 205.5t-56.5 79.5 t-68.5 42t-68.5 -42t-56.5 -79.5t-16.5 -205.5v-285zM580 1669.5q0 20.5 67.5 76.5t85 56t84 -56t66.5 -76.5t-66.5 -77t-85 -56.5t-85 56.5t-66.5 77z" />
<glyph unicode="&#xc5;" horiz-adv-x="1052" d="M102 0v838q0 209 23 268q35 86 180.5 219t221 133t221 -133t180.5 -219q23 -59 22 -268v-838h-282v307h-283v-307h-283zM332 1693q0 40 75.5 106.5t119.5 66.5t119 -66.5t75 -105.5t-75 -106.5t-120 -67.5t-119.5 66.5t-74.5 106.5zM385 553h283v285q0 168 -16.5 205.5 t-56.5 79.5t-68.5 42t-68.5 -42t-56.5 -79.5t-16.5 -205.5v-285zM440 1692.5q0 -19.5 33 -48t53.5 -28.5t53 28.5t32.5 49t-32.5 49.5t-52 29t-53.5 -30t-34 -49.5z" />
<glyph unicode="&#xc6;" horiz-adv-x="1490" d="M102 0v838q0 209 23 268q35 86 180.5 219t224 133t246.5 -160l225 160h406v-250h-330l-127 -94v-242h367v-247h-367v-377h490v-248h-772v307h-283v-307h-283zM385 553h283v285q0 168 -16.5 205.5t-56.5 79.5t-68.5 42t-68.5 -42t-56.5 -79.5t-16.5 -205.5v-285z" />
<glyph unicode="&#xc7;" horiz-adv-x="1001" d="M51 621v192q0 256 41 327.5t175 194.5t200 123q113 0 258 -130t184 -286l-227 -157q-33 111 -104.5 204t-100.5 93q-51 0 -117 -101q-27 -39 -26 -268v-192q0 -236 26 -269q66 -100 117 -100q29 0 100.5 81t104.5 179l227 -160q-29 -106 -123 -202.5t-200 -143.5 q-51 -68 -97 -121q59 -55 92 -83.5t54 -47.5q39 -39 39 -55t-122 -113.5t-135.5 -97.5t-52 39t-38.5 51t123 123q-123 111 -123 123q0 25 100 162q-74 31 -187.5 139t-142.5 162q-45 78 -45 334z" />
<glyph unicode="&#xc8;" horiz-adv-x="997" d="M143 0v1262l283 196h457v-250h-381l-76 -53v-283h367v-247h-367v-377h489v-248h-772zM272 1626.5q0 24.5 41 102t56 77.5q20 0 166.5 -85t146.5 -96t-16.5 -50t-24.5 -39q-37 0 -203 33t-166 57.5z" />
<glyph unicode="&#xc9;" horiz-adv-x="997" d="M143 0v1262l283 196h457v-250h-381l-76 -53v-283h367v-247h-367v-377h489v-248h-772zM457 1625q0 11 146.5 96t166.5 85q14 0 55 -77.5t41 -102t-165.5 -57.5t-202.5 -33q-8 0 -24.5 39t-16.5 50z" />
<glyph unicode="&#xca;" horiz-adv-x="997" d="M143 0v1262l283 196h457v-250h-381l-76 -53v-283h367v-247h-367v-377h489v-248h-772zM293 1647q0 10 137 84.5t155.5 74.5t156 -74.5t137.5 -84.5q0 -16 -25 -63.5t-38 -47.5t-230 90q-229 -90 -232 -90q-10 0 -35.5 47.5t-25.5 63.5z" />
<glyph unicode="&#xcb;" horiz-adv-x="997" d="M143 0v1262l283 196h457v-250h-381l-76 -53v-283h367v-247h-367v-377h489v-248h-772zM203 1669.5q0 20.5 67.5 76.5t85 56t84 -56t66.5 -76.5t-66.5 -77t-85 -56.5t-85 56.5t-66.5 77zM608 1669.5q0 20.5 67.5 76.5t85 56t84 -56t66.5 -76.5t-66.5 -77t-85 -56.5 t-85 56.5t-66.5 77z" />
<glyph unicode="&#xcc;" horiz-adv-x="512" d="M27 1626.5q0 24.5 41 102t55 77.5q20 0 166.5 -85t146.5 -96t-16.5 -50t-24.5 -39q-37 0 -202.5 33t-165.5 57.5zM115 0v1434h282v-1434h-282z" />
<glyph unicode="&#xcd;" horiz-adv-x="512" d="M88 1625q0 11 146.5 96t166.5 85q14 0 55.5 -77.5t41.5 -102t-166 -57.5t-203 -33q-8 0 -24.5 39t-16.5 50zM115 0v1434h282v-1434h-282z" />
<glyph unicode="&#xce;" horiz-adv-x="512" d="M-37 1647q0 10 137.5 84.5t155.5 74.5t155.5 -74.5t137.5 -84.5q0 -16 -24.5 -63.5t-38 -47.5t-230.5 90q-229 -90 -231 -90q-10 0 -36 47.5t-26 63.5zM115 0v1434h282v-1434h-282z" />
<glyph unicode="&#xcf;" horiz-adv-x="512" d="M-96 1669.5q0 20.5 67.5 76.5t85 56t84 -56t66.5 -76.5t-66.5 -77t-85 -56.5t-85 56.5t-66.5 77zM115 0v1434h282v-1434h-282zM309 1669.5q0 20.5 67.5 76.5t85 56t84 -56t66.5 -76.5t-66.5 -77t-85 -56.5t-85 56.5t-66.5 77z" />
<glyph unicode="&#xd0;" horiz-adv-x="1093" d="M20 594v246h123v37q0 166 -23.5 232.5t-99.5 158.5l271 190q43 -33 76 -106q135 106 204.5 106t216 -134t181.5 -218q23 -53 22 -268v-242q0 -215 -22 -268q-37 -80 -178.5 -204t-223.5 -124h-424v594h-123zM420 1126q6 -43 6 -131v-155h154v-246h-154v-346h141 q29 0 69 42t56.5 80t16.5 205v263q0 168 -16.5 205.5t-56.5 79.5t-69 42q-59 0 -147 -39z" />
<glyph unicode="&#xd1;" horiz-adv-x="1064" d="M20 1286l246 172q59 -39 111 -133q162 133 219 133t181 -107.5t155 -151.5t31 -116v-1083h-285v1042q0 18 -15.5 46t-47 63t-59.5 35t-69 -32t-63 -71l2 -88v-995h-283v877q0 172 -23.5 241.5t-99.5 167.5zM166 1608.5q0 13.5 126 135.5t149.5 122t183.5 -123 q160 123 178 123t57 -39t39 -52.5t-126 -135t-149.5 -121.5t-183.5 122q-160 -123 -178 -122.5t-57 39t-39 52z" />
<glyph unicode="&#xd2;" d="M51 596v242q0 215 23 268q35 84 181 218t220 134t220.5 -134t181.5 -218q23 -53 22 -268v-242q0 -215 -22 -268q-35 -84 -181.5 -218.5t-220.5 -134.5t-220 134.5t-181 218.5q-23 53 -23 268zM211 1626.5q0 24.5 41 102t55 77.5q20 0 167 -85t147 -96t-16.5 -50 t-24.5 -39q-37 0 -203 33t-166 57.5zM334 596q0 -168 16.5 -206t56 -80t68.5 -42t69 42t56 80t16 206v242q0 168 -16 205.5t-56 79.5t-69 42t-68.5 -42t-56 -79.5t-16.5 -205.5v-242z" />
<glyph unicode="&#xd3;" d="M51 596v242q0 215 23 268q35 84 181 218t220 134t220.5 -134t181.5 -218q23 -53 22 -268v-242q0 -215 -22 -268q-35 -84 -181.5 -218.5t-220.5 -134.5t-220 134.5t-181 218.5q-23 53 -23 268zM334 596q0 -168 16.5 -206t56 -80t68.5 -42t69 42t56 80t16 206v242 q0 168 -16 205.5t-56 79.5t-69 42t-68.5 -42t-56 -79.5t-16.5 -205.5v-242zM334 1625q0 11 146.5 96t166.5 85q14 0 55 -77.5t41 -102t-165.5 -57.5t-202.5 -33q-8 0 -24.5 39t-16.5 50z" />
<glyph unicode="&#xd4;" d="M51 596v242q0 215 23 268q35 84 181 218t220 134t220.5 -134t181.5 -218q23 -53 22 -268v-242q0 -215 -22 -268q-35 -84 -181.5 -218.5t-220.5 -134.5t-220 134.5t-181 218.5q-23 53 -23 268zM184 1647q0 10 137.5 84.5t156 74.5t155.5 -74.5t137 -84.5 q0 -16 -24.5 -63.5t-38 -47.5t-230.5 90q-229 -90 -231 -90q-10 0 -36 47.5t-26 63.5zM334 596q0 -168 16.5 -206t56 -80t68.5 -42t69 42t56 80t16 206v242q0 168 -16 205.5t-56 79.5t-69 42t-68.5 -42t-56 -79.5t-16.5 -205.5v-242z" />
<glyph unicode="&#xd5;" d="M51 596v242q0 215 23 268q35 84 181 218t220 134t220.5 -134t181.5 -218q23 -53 22 -268v-242q0 -215 -22 -268q-35 -84 -181.5 -218.5t-220.5 -134.5t-220 134.5t-181 218.5q-23 53 -23 268zM109 1608.5q0 13.5 125.5 135.5t149.5 122t183 -123q160 123 178.5 123 t57.5 -39t39 -52.5t-126 -135t-149.5 -121.5t-183.5 122q-160 -123 -178.5 -122.5t-57 39t-38.5 52zM334 596q0 -168 16.5 -206t56 -80t68.5 -42t69 42t56 80t16 206v242q0 168 -16 205.5t-56 79.5t-69 42t-68.5 -42t-56 -79.5t-16.5 -205.5v-242z" />
<glyph unicode="&#xd6;" d="M51 596v242q0 215 23 268q35 84 181 218t220 134t220.5 -134t181.5 -218q23 -53 22 -268v-242q0 -215 -22 -268q-35 -84 -181.5 -218.5t-220.5 -134.5t-220 134.5t-181 218.5q-23 53 -23 268zM121 1669.5q0 20.5 67.5 76.5t85 56t84 -56t66.5 -76.5t-66.5 -77t-85 -56.5 t-85 56.5t-66.5 77zM334 596q0 -168 16.5 -206t56 -80t68.5 -42t69 42t56 80t16 206v242q0 168 -16 205.5t-56 79.5t-69 42t-68.5 -42t-56 -79.5t-16.5 -205.5v-242zM526 1669.5q0 20.5 68 76.5t85 56t83.5 -56t66.5 -76.5t-66.5 -77t-85 -56.5t-85 56.5t-66.5 77z" />
<glyph unicode="&#xd7;" horiz-adv-x="1060" d="M113 346q0 31 219 266q-80 86 -149.5 170t-69.5 100.5t72.5 73t99.5 56.5q4 0 47 -41q162 -156 198 -185q37 29 139.5 127.5t106.5 98.5q25 0 98.5 -56.5t73.5 -76.5q0 -12 -69.5 -96.5t-151.5 -170.5q221 -238 221 -262t-72.5 -80.5t-99.5 -56.5q-4 0 -47 41 q-162 156 -199 184q-37 -29 -139 -127t-106 -98q-25 0 -98.5 56.5t-73.5 76.5z" />
<glyph unicode="&#xd8;" d="M51 596v242q0 215 23 268q35 84 181 218t223 134t249 -164q82 164 86 164q10 0 34.5 -17.5t24.5 -24.5t-90 -181q72 -78 94.5 -130t22.5 -267v-242q0 -215 -22 -268q-35 -84 -181.5 -218.5t-225.5 -134.5t-247 164l-86 -164q-10 0 -34.5 18.5t-24.5 26.5q37 76 88 179 q-76 88 -95.5 135t-19.5 262zM326 514l280 543q-18 37 -60 77t-72 40t-72 -42t-59 -81t-17 -213v-324zM344 377q20 -37 61 -77t70 -40t72 42t60.5 81t17.5 213v242q0 57 -2 84z" />
<glyph unicode="&#xd9;" horiz-adv-x="1093" d="M20 1286l246 172q66 -43 113 -167t47 -296v-399q0 -168 16.5 -206t56.5 -80t68.5 -42t68.5 42t56.5 80t16.5 206v838h282v-838q0 -215 -22 -268q-35 -84 -181.5 -218.5t-220 -134.5t-220 134.5t-181.5 218.5q-23 53 -23 268v297q0 166 -23.5 233.5t-99.5 159.5z M246 1626.5q0 24.5 41 102t55 77.5q20 0 166.5 -85t146.5 -96t-16 -50t-25 -39q-37 0 -202.5 33t-165.5 57.5z" />
<glyph unicode="&#xda;" horiz-adv-x="1093" d="M20 1286l246 172q66 -43 113 -167t47 -296v-399q0 -168 16.5 -206t56.5 -80t68.5 -42t68.5 42t56.5 80t16.5 206v838h282v-838q0 -215 -22 -268q-35 -84 -181.5 -218.5t-220 -134.5t-220 134.5t-181.5 218.5q-23 53 -23 268v297q0 166 -23.5 233.5t-99.5 159.5zM375 1625 q0 11 146.5 96t166.5 85q14 0 55 -77.5t41 -102t-165.5 -57.5t-202.5 -33q-8 0 -24.5 39t-16.5 50z" />
<glyph unicode="&#xdb;" horiz-adv-x="1093" d="M20 1286l246 172q66 -43 113 -167t47 -296v-399q0 -168 16.5 -206t56.5 -80t68.5 -42t68.5 42t56.5 80t16.5 206v838h282v-838q0 -215 -22 -268q-35 -84 -181.5 -218.5t-220 -134.5t-220 134.5t-181.5 218.5q-23 53 -23 268v297q0 166 -23.5 233.5t-99.5 159.5zM252 1647 q0 10 137 84.5t155.5 74.5t156 -74.5t137.5 -84.5q0 -16 -25 -63.5t-38 -47.5t-230 90q-229 -90 -232 -90q-10 0 -35.5 47.5t-25.5 63.5z" />
<glyph unicode="&#xdc;" horiz-adv-x="1093" d="M20 1286l246 172q66 -43 113 -167t47 -296v-399q0 -168 16.5 -206t56.5 -80t68.5 -42t68.5 42t56.5 80t16.5 206v838h282v-838q0 -215 -22 -268q-35 -84 -181.5 -218.5t-220 -134.5t-220 134.5t-181.5 218.5q-23 53 -23 268v297q0 166 -23.5 233.5t-99.5 159.5z M193 1669.5q0 20.5 67.5 76.5t84.5 56t84 -56t67 -76.5t-67 -77t-85 -56.5t-84.5 56.5t-66.5 77zM598 1669.5q0 20.5 67.5 76.5t85 56t84 -56t66.5 -76.5t-66.5 -77t-85 -56.5t-85 56.5t-66.5 77z" />
<glyph unicode="&#xdd;" horiz-adv-x="1042" d="M92 1087v347h283v-347q0 -104 17.5 -146t61.5 -101.5t62.5 -59.5t63.5 60.5t61 99.5t16 147v347h283v-347q0 -164 -26.5 -215t-102.5 -142t-154 -157v-573h-282v573q-80 66 -155 157t-101.5 143t-26.5 214zM375 1625q0 11 146.5 96t166.5 85q14 0 55 -77.5t41 -102 t-165.5 -57.5t-202.5 -33q-8 0 -24.5 39t-16.5 50z" />
<glyph unicode="&#xde;" horiz-adv-x="1044" d="M20 1286l246 172q61 -35 105.5 -123t52.5 -215q119 72 183.5 72t191.5 -110.5t170 -184.5q23 -39 22.5 -167t-22.5 -165q-45 -74 -172 -184.5t-197 -110.5h-174v-270h-283v958q0 139 -23.5 194.5t-99.5 133.5zM426 535h154q27 0 69.5 34.5t57 69.5t14.5 90t-16.5 89 t-57.5 69t-67 35q-68 0 -154 -56v-331z" />
<glyph unicode="&#xdf;" horiz-adv-x="1112" d="M31 809v154l102 24q0 229 24.5 280.5t172 160t217.5 108.5q109 0 261.5 -141.5t152.5 -239.5q0 -55 -97.5 -209.5t-97.5 -182.5t44 -77t98.5 -102.5t98.5 -129t44 -145.5q0 -111 -69 -203t-159 -133l-225 158q70 29 127 83t57 91t-45 95.5t-100 114.5t-100 124t-45 123 t104 191.5t104 192.5t-56 105t-93 49t-78 -26.5t-55.5 -52t-14.5 -197.5v-1024h-270v809h-102z" />
<glyph unicode="&#xe0;" horiz-adv-x="917" d="M61 552q0 224 27 291.5t136.5 176t158.5 108.5q72 0 231 -147l25 123h201v-840q12 -72 96 -127l-184 -157q-27 18 -66 65t-65 96q-170 -166 -238 -166q-49 0 -158.5 109t-136.5 176.5t-27 291.5zM188 1403q0 20 67 76.5t86 56.5t125.5 -131t106.5 -144.5t-30.5 -43 t-45 -29.5t-162 93t-147.5 122zM322 552q0 -208 26 -245q8 -20 34 -48t48.5 -28t66.5 28t57 50.5t15 239.5q0 217 -14 242.5t-58 53t-66.5 27.5t-48.5 -26.5t-34 -48.5q-26 -37 -26 -245z" />
<glyph unicode="&#xe1;" horiz-adv-x="917" d="M61 552q0 224 27 291.5t136.5 176t158.5 108.5q72 0 231 -147l25 123h201v-840q12 -72 96 -127l-184 -157q-27 18 -66 65t-65 96q-170 -166 -238 -166q-49 0 -158.5 109t-136.5 176.5t-27 291.5zM311 1260.5q0 13.5 106.5 144.5t126 131t86 -56.5t66.5 -76.5 q0 -29 -147.5 -122t-161.5 -93t-45 29.5t-31 43zM322 552q0 -208 26 -245q8 -20 34 -48t48.5 -28t66.5 28t57 50.5t15 239.5q0 217 -14 242.5t-58 53t-66.5 27.5t-48.5 -26.5t-34 -48.5q-26 -37 -26 -245z" />
<glyph unicode="&#xe2;" horiz-adv-x="917" d="M61 552q0 224 27 291.5t136.5 176t158.5 108.5q72 0 231 -147l25 123h201v-840q12 -72 96 -127l-184 -157q-27 18 -66 65t-65 96q-170 -166 -238 -166q-49 0 -158.5 109t-136.5 176.5t-27 291.5zM188 1279q0 13 126 135t148.5 122t148.5 -122t126 -135t-39 -52t-57 -39 t-178 123q-160 -123 -178.5 -123t-57.5 39t-39 52zM322 552q0 -208 26 -245q8 -20 34 -48t48.5 -28t66.5 28t57 50.5t15 239.5q0 217 -14 242.5t-58 53t-66.5 27.5t-48.5 -26.5t-34 -48.5q-26 -37 -26 -245z" />
<glyph unicode="&#xe3;" horiz-adv-x="917" d="M61 552q0 224 27 291.5t136.5 176t158.5 108.5q72 0 231 -147l25 123h201v-840q12 -72 96 -127l-184 -157q-27 18 -66 65t-65 96q-170 -166 -238 -166q-49 0 -158.5 109t-136.5 176.5t-27 291.5zM98 1279q0 13 126 135t149.5 122t183.5 -123q160 123 178.5 123t57 -39 t38.5 -52t-125.5 -135t-149.5 -122t-183 123q-160 -123 -178.5 -123t-57.5 39t-39 52zM322 552q0 -208 26 -245q8 -20 34 -48t48.5 -28t66.5 28t57 50.5t15 239.5q0 217 -14 242.5t-58 53t-66.5 27.5t-48.5 -26.5t-34 -48.5q-26 -37 -26 -245z" />
<glyph unicode="&#xe4;" horiz-adv-x="917" d="M61 552q0 224 27 291.5t136.5 176t158.5 108.5q72 0 231 -147l25 123h201v-840q12 -72 96 -127l-184 -157q-27 18 -66 65t-65 96q-170 -166 -238 -166q-49 0 -158.5 109t-136.5 176.5t-27 291.5zM111 1402.5q0 20.5 67.5 77t85 56.5t84 -56.5t66.5 -77t-66.5 -76.5 t-85 -56t-85 56t-66.5 76.5zM322 552q0 -208 26 -245q8 -20 34 -48t48.5 -28t66.5 28t57 50.5t15 239.5q0 217 -14 242.5t-58 53t-66.5 27.5t-48.5 -26.5t-34 -48.5q-26 -37 -26 -245zM516 1402.5q0 20.5 67.5 77t85 56.5t84 -56.5t66.5 -77t-66.5 -76.5t-85 -56t-85 56 t-66.5 76.5z" />
<glyph unicode="&#xe5;" horiz-adv-x="917" d="M61 552q0 224 27 291.5t136.5 176t158.5 108.5q72 0 231 -147l25 123h201v-840q12 -72 96 -127l-184 -157q-27 18 -66 65t-65 96q-170 -166 -238 -166q-49 0 -158.5 109t-136.5 176.5t-27 291.5zM240 1363q0 40 75.5 106.5t119.5 66.5t119 -66.5t75 -105.5t-75 -106.5 t-120 -67.5t-119.5 66.5t-74.5 106.5zM322 552q0 -208 26 -245q8 -20 34 -48t48.5 -28t66.5 28t57 50.5t15 239.5q0 217 -14 242.5t-58 53t-66.5 27.5t-48.5 -26.5t-34 -48.5q-26 -37 -26 -245zM348 1362.5q0 -19.5 33 -48t53.5 -28.5t53 28.5t32.5 49t-32.5 49.5t-52 29 t-53.5 -30t-34 -49.5z" />
<glyph unicode="&#xe6;" horiz-adv-x="1353" d="M20 306q0 75 159 204t329 205q0 57 -39 117.5t-68 60.5q-51 0 -149 -168l-211 145q57 100 170 179t189.5 79t240.5 -155q168 156 248 155q61 0 193 -108.5t161 -168.5t29 -296v-74h-496q0 -123 31 -194q10 -25 36.5 -50.5t55.5 -25.5t72 49t67 119l211 -150 q-55 -102 -168.5 -178t-191.5 -76q-45 0 -129 58.5t-156 130.5q-174 -188 -280 -189q-43 0 -173.5 128t-130.5 203zM295 331.5q0 -22.5 27.5 -61.5t47 -39t64.5 29q76 49 76 90q0 10 2 63.5t2 63.5q-70 -25 -144.5 -74t-74.5 -71.5zM776 676h234q-6 109 -21.5 136.5 t-47.5 54t-59.5 26.5t-62.5 -54t-43 -163z" />
<glyph unicode="&#xe7;" horiz-adv-x="835" d="M61 551q0 258 43 328q31 51 152 150t187.5 99t180 -78.5t171.5 -179.5l-211 -145q-27 49 -73 108.5t-69 59.5q-41 0 -94 -86q-27 -53 -26.5 -255t26.5 -255q16 -27 43 -56.5t53.5 -29.5t69.5 47t70 121l211 -148q-45 -82 -126 -147.5t-161 -91.5q-35 -47 -84 -107 q59 -55 92 -83.5t53 -47.5q39 -39 39 -55t-121.5 -113.5t-135 -97.5t-52.5 39t-39 51t123 123q-123 111 -123 123q0 25 109 172q-68 35 -155 113.5t-110 115.5q-43 68 -43 326z" />
<glyph unicode="&#xe8;" horiz-adv-x="909" d="M61 552q0 239 29 299t161 168.5t193.5 108.5t193.5 -108.5t160.5 -168.5t28.5 -296v-74h-495q0 -123 30 -194q10 -25 37 -50.5t55.5 -25.5t71.5 49t68 119l211 -150q-55 -102 -169 -178t-183.5 -76t-201.5 109t-161 169t-29 299zM190 1403q0 20 67 76.5t86 56.5 t125.5 -131t106.5 -144.5t-30.5 -43t-45 -29.5t-162 93t-147.5 122zM332 676h233q-6 109 -21.5 136.5t-47 54t-59 26.5t-62.5 -54t-43 -163z" />
<glyph unicode="&#xe9;" horiz-adv-x="909" d="M61 552q0 239 29 299t161 168.5t193.5 108.5t193.5 -108.5t160.5 -168.5t28.5 -296v-74h-495q0 -123 30 -194q10 -25 37 -50.5t55.5 -25.5t71.5 49t68 119l211 -150q-55 -102 -169 -178t-183.5 -76t-201.5 109t-161 169t-29 299zM293 1260.5q0 13.5 106.5 144.5t126 131 t86 -56.5t66.5 -76.5q0 -29 -147.5 -122t-162 -93t-45 29.5t-30.5 43zM332 676h233q-6 109 -21.5 136.5t-47 54t-59 26.5t-62.5 -54t-43 -163z" />
<glyph unicode="&#xea;" horiz-adv-x="909" d="M61 552q0 239 29 299t161 168.5t193.5 108.5t193.5 -108.5t160.5 -168.5t28.5 -296v-74h-495q0 -123 30 -194q10 -25 37 -50.5t55.5 -25.5t71.5 49t68 119l211 -150q-55 -102 -169 -178t-183.5 -76t-201.5 109t-161 169t-29 299zM170 1279q0 13 126 135t148.5 122 t148.5 -122t126 -135t-39 -52t-57.5 -39t-178.5 123q-160 -123 -178 -123t-57 39t-39 52zM332 676h233q-6 109 -21.5 136.5t-47 54t-59 26.5t-62.5 -54t-43 -163z" />
<glyph unicode="&#xeb;" horiz-adv-x="909" d="M61 552q0 239 29 299t161 168.5t193.5 108.5t193.5 -108.5t160.5 -168.5t28.5 -296v-74h-495q0 -123 30 -194q10 -25 37 -50.5t55.5 -25.5t71.5 49t68 119l211 -150q-55 -102 -169 -178t-183.5 -76t-201.5 109t-161 169t-29 299zM90 1402.5q0 20.5 67.5 77t85 56.5 t84 -56.5t66.5 -77t-66.5 -76.5t-85 -56t-85 56t-66.5 76.5zM332 676h233q-6 109 -21.5 136.5t-47 54t-59 26.5t-62.5 -54t-43 -163zM496 1402.5q0 20.5 67.5 77t85 56.5t84 -56.5t66.5 -77t-66.5 -76.5t-85 -56t-85 56t-66.5 76.5z" />
<glyph unicode="&#xec;" horiz-adv-x="514" d="M76 1403q0 20 66.5 76.5t86 56.5t126 -131t106.5 -144.5t-31 -43t-45 -29.5t-161.5 93t-147.5 122zM111 307v797h270v-709q0 -104 24.5 -161.5t77.5 -100.5l-225 -158q-147 117 -147 332z" />
<glyph unicode="&#xed;" horiz-adv-x="514" d="M76 1260.5q0 13.5 106.5 144.5t126 131t86 -56.5t66.5 -76.5q0 -29 -147.5 -122t-162 -93t-45 29.5t-30.5 43zM111 307v797h270v-709q0 -104 24.5 -161.5t77.5 -100.5l-225 -158q-147 117 -147 332z" />
<glyph unicode="&#xee;" horiz-adv-x="514" d="M-6 1279q0 13 126 135t148.5 122t148.5 -122t126 -135t-39 -52t-57.5 -39t-178.5 123q-160 -123 -178 -123t-57 39t-39 52zM111 307v797h270v-709q0 -104 24.5 -161.5t77.5 -100.5l-225 -158q-147 117 -147 332z" />
<glyph unicode="&#xef;" horiz-adv-x="514" d="M-80 1402.5q0 20.5 67.5 77t85 56.5t84 -56.5t66.5 -77t-66.5 -76.5t-85 -56t-85 56t-66.5 76.5zM111 307v797h270v-709q0 -104 24.5 -161.5t77.5 -100.5l-225 -158q-147 117 -147 332zM326 1402.5q0 20.5 67.5 77t85 56.5t84 -56.5t66.5 -77t-66.5 -76.5t-85 -56t-85 56 t-66.5 76.5z" />
<glyph unicode="&#xf0;" d="M68 1382l217 154l125 -80q119 80 139 80t78.5 -50t58.5 -65.5t-104 -97.5q147 -106 196 -303t49 -462t-22.5 -315t-155.5 -159t-194.5 -109t-194.5 109t-155.5 159t-22.5 288.5t22.5 288.5t155.5 158.5t195 108.5q8 0 12 -2q-35 49 -82 95q-150 -102 -171 -102.5 t-80.5 50t-59.5 68.5t137 119q-71 42 -143 67zM342 531.5q0 -209.5 13.5 -238.5t45 -55.5t54 -26.5t54.5 26.5t45 55.5t13 238.5t-13 237.5t-46 55.5t-54.5 27.5t-53 -26.5t-45 -55.5t-13.5 -238.5z" />
<glyph unicode="&#xf1;" horiz-adv-x="1030" d="M31 969l225 157q76 -61 113 -141q152 143 214 143t188 -113.5t126 -223.5v-396q0 -104 24.5 -161.5t77.5 -100.5l-225 -158q-147 117 -147 332v455q0 35 -37 72.5t-69 37.5t-118 -86v-786h-270v707q0 104 -24.5 161.5t-77.5 100.5zM147 1279q0 13 126 135t149.5 122 t183.5 -123q160 123 178.5 123t57.5 -39t39 -52t-126 -135t-149.5 -122t-183.5 123q-160 -123 -178.5 -123t-57.5 39t-39 52z" />
<glyph unicode="&#xf2;" horiz-adv-x="888" d="M61 553q0 252 43 326q29 49 155 149t185.5 100t185.5 -100t154 -149q43 -74 43 -326t-43 -328q-29 -49 -154.5 -149.5t-185 -100.5t-185.5 100.5t-155 149.5q-43 76 -43 328zM252 1403q0 20 66.5 76.5t86 56.5t126 -131t106.5 -144.5t-31 -43t-45 -29.5t-161.5 93 t-147.5 122zM322 553q0 -209 26 -256q14 -25 46 -55.5t50.5 -30.5t50 30.5t46.5 55.5q27 45 26.5 254t-26.5 256q-14 25 -46 55.5t-50.5 30.5t-50.5 -31t-46 -55q-26 -45 -26 -254z" />
<glyph unicode="&#xf3;" horiz-adv-x="888" d="M61 553q0 252 43 326q29 49 155 149t185.5 100t185.5 -100t154 -149q43 -74 43 -326t-43 -328q-29 -49 -154.5 -149.5t-185 -100.5t-185.5 100.5t-155 149.5q-43 76 -43 328zM252 1260.5q0 13.5 106.5 144.5t126 131t86 -56.5t66.5 -76.5q0 -29 -147.5 -122t-162 -93 t-45 29.5t-30.5 43zM322 553q0 -209 26 -256q14 -25 46 -55.5t50.5 -30.5t50 30.5t46.5 55.5q27 45 26.5 254t-26.5 256q-14 25 -46 55.5t-50.5 30.5t-50.5 -31t-46 -55q-26 -45 -26 -254z" />
<glyph unicode="&#xf4;" horiz-adv-x="888" d="M61 553q0 252 43 326q29 49 155 149t185.5 100t185.5 -100t154 -149q43 -74 43 -326t-43 -328q-29 -49 -154.5 -149.5t-185 -100.5t-185.5 100.5t-155 149.5q-43 76 -43 328zM170 1279q0 13 126 135t148.5 122t148.5 -122t126 -135t-39 -52t-57.5 -39t-178.5 123 q-160 -123 -178 -123t-57 39t-39 52zM322 553q0 -209 26 -256q14 -25 46 -55.5t50.5 -30.5t50 30.5t46.5 55.5q27 45 26.5 254t-26.5 256q-14 25 -46 55.5t-50.5 30.5t-50.5 -31t-46 -55q-26 -45 -26 -254z" />
<glyph unicode="&#xf5;" horiz-adv-x="888" d="M61 553q0 252 43 326q29 49 155 149t185.5 100t185.5 -100t154 -149q43 -74 43 -326t-43 -328q-29 -49 -154.5 -149.5t-185 -100.5t-185.5 100.5t-155 149.5q-43 76 -43 328zM78 1279q0 13 126 135t149.5 122t183.5 -123q160 123 178 123t57 -39t39 -52t-126 -135 t-149.5 -122t-183.5 123q-160 -123 -178 -123t-57 39t-39 52zM322 553q0 -209 26 -256q14 -25 46 -55.5t50.5 -30.5t50 30.5t46.5 55.5q27 45 26.5 254t-26.5 256q-14 25 -46 55.5t-50.5 30.5t-50.5 -31t-46 -55q-26 -45 -26 -254z" />
<glyph unicode="&#xf6;" horiz-adv-x="888" d="M61 553q0 252 43 326q29 49 155 149t185.5 100t185.5 -100t154 -149q43 -74 43 -326t-43 -328q-29 -49 -154.5 -149.5t-185 -100.5t-185.5 100.5t-155 149.5q-43 76 -43 328zM90 1402.5q0 20.5 67.5 77t85 56.5t84 -56.5t66.5 -77t-66.5 -76.5t-85 -56t-85 56t-66.5 76.5 zM322 553q0 -209 26 -256q14 -25 46 -55.5t50.5 -30.5t50 30.5t46.5 55.5q27 45 26.5 254t-26.5 256q-14 25 -46 55.5t-50.5 30.5t-50.5 -31t-46 -55q-26 -45 -26 -254zM496 1402.5q0 20.5 67.5 77t85 56.5t84 -56.5t66.5 -77t-66.5 -76.5t-85 -56t-85 56t-66.5 76.5z" />
<glyph unicode="&#xf7;" horiz-adv-x="1011" d="M113 494v241h786v-241h-786zM328 293.5q0 21.5 72.5 82t92 60.5t91 -60.5t71.5 -82t-71.5 -84t-92 -62.5t-92 62.5t-71.5 84zM328 939.5q0 21.5 72.5 81.5t92 60t91 -60t71.5 -81.5t-71.5 -84t-92 -62.5t-92 62.5t-71.5 84z" />
<glyph unicode="&#xf8;" horiz-adv-x="868" d="M61 552q0 255 22.5 307t156 160.5t201 108.5t218.5 -135q82 135 86 135q8 0 29 -17t21 -23.5t-82 -145.5q59 -55 76.5 -95t17.5 -295t-22.5 -307t-155.5 -161t-197.5 -109t-218.5 129q-78 -129 -82 -129q-8 0 -28.5 18.5t-20.5 25t76 137.5q-63 63 -74 90q-23 51 -23 306 zM315 422q57 98 228 379l-6 24q-10 23 -45 49.5t-57.5 26.5t-57.5 -26.5t-48.5 -56.5t-13.5 -269v-127zM328 293q0 -27 42 -58.5t64.5 -31.5t57 26.5t48 56t13.5 189.5t-2 195z" />
<glyph unicode="&#xf9;" horiz-adv-x="1050" d="M164 313v791h270v-762q0 -35 33 -73t61.5 -38t118.5 84v789h271v-1104h-209l-25 121q-154 -145 -215 -145.5t-183 113t-122 224.5zM332 1403q0 20 66.5 76.5t86 56.5t126 -131t106.5 -144.5t-31 -43t-45 -29.5t-161.5 93t-147.5 122z" />
<glyph unicode="&#xfa;" horiz-adv-x="1050" d="M164 313v791h270v-762q0 -35 33 -73t61.5 -38t118.5 84v789h271v-1104h-209l-25 121q-154 -145 -215 -145.5t-183 113t-122 224.5zM332 1260.5q0 13.5 106.5 144.5t126 131t86 -56.5t66.5 -76.5q0 -29 -147.5 -122t-162 -93t-45 29.5t-30.5 43z" />
<glyph unicode="&#xfb;" horiz-adv-x="1050" d="M164 313v791h270v-762q0 -35 33 -73t61.5 -38t118.5 84v789h271v-1104h-209l-25 121q-154 -145 -215 -145.5t-183 113t-122 224.5zM250 1279q0 13 126 135t148.5 122t148.5 -122t126 -135t-39 -52t-57.5 -39t-178.5 123q-160 -123 -178 -123t-57 39t-39 52z" />
<glyph unicode="&#xfc;" horiz-adv-x="1050" d="M164 313v791h270v-762q0 -35 33 -73t61.5 -38t118.5 84v789h271v-1104h-209l-25 121q-154 -145 -215 -145.5t-183 113t-122 224.5zM170 1402.5q0 20.5 67.5 77t85 56.5t84 -56.5t66.5 -77t-66.5 -76.5t-85 -56t-85 56t-66.5 76.5zM575 1402.5q0 20.5 68 77t85 56.5 t84 -56.5t67 -77t-67 -76.5t-85 -56t-85 56t-67 76.5z" />
<glyph unicode="&#xfd;" horiz-adv-x="1050" d="M61 971l226 157q147 -117 147 -331v-414q0 -35 39 -73t67.5 -38t106.5 84v748h271v-1036q0 -244 -31 -303.5t-161 -168t-197.5 -108.5t-174 70.5t-159.5 162.5l211 146l20 -27q76 -96 103.5 -96t59.5 26.5t45 53t13 192.5v111q-115 -111 -171 -111t-184 114t-128 224v355 q0 104 -25 161.5t-78 100.5zM352 1260.5q0 13.5 106.5 144.5t126 131t86 -56.5t66.5 -76.5q0 -29 -147.5 -122t-161.5 -93t-45 29.5t-31 43z" />
<glyph unicode="&#xfe;" horiz-adv-x="958" d="M31 1378l225 158q147 -117 147 -330v-186q123 109 177.5 108.5t166 -110t127.5 -160.5q23 -51 23 -306t-23 -306q-16 -51 -127.5 -161t-165 -110t-178.5 107v-174q0 -104 25 -161.5t78 -100.5l-225 -158q-147 117 -148 332v1298q0 104 -24.5 159.5t-77.5 100.5zM399 550 q0 -212 14.5 -237.5t58.5 -53.5t66.5 -28t48 27t38 55.5t12.5 238.5t-12.5 237.5t-38 55t-47 27.5t-65.5 -27.5t-58 -47.5q-17 -35 -17 -247z" />
<glyph unicode="&#xff;" horiz-adv-x="1050" d="M61 971l226 157q147 -117 147 -331v-414q0 -35 39 -73t67.5 -38t106.5 84v748h271v-1036q0 -244 -31 -303.5t-161 -168t-197.5 -108.5t-174 70.5t-159.5 162.5l211 146l20 -27q76 -96 103.5 -96t59.5 26.5t45 53t13 192.5v111q-115 -111 -171 -111t-184 114t-128 224v355 q0 104 -25 161.5t-78 100.5zM170 1402.5q0 20.5 67.5 77t85 56.5t84 -56.5t66.5 -77t-66.5 -76.5t-85 -56t-85 56t-66.5 76.5zM575 1402.5q0 20.5 68 77t85 56.5t84 -56.5t67 -77t-67 -76.5t-85 -56t-85 56t-67 76.5z" />
<glyph unicode="&#x152;" horiz-adv-x="1439" d="M51 596v242q0 215 23 268q35 84 181 218t222 134t236 -151l217 151h426v-250h-350l-107 -73v-263h367v-247h-367v-377h490v-248h-732v104q-121 -129 -188.5 -129t-213.5 134.5t-181 218.5q-23 53 -23 268zM334 596q0 -168 16.5 -206t56 -80t69.5 -42t78 40t62 83v447 q0 168 -16 205.5t-56 79.5t-69 42t-68.5 -42t-56 -79.5t-16.5 -205.5v-242z" />
<glyph unicode="&#x153;" horiz-adv-x="1396" d="M61 553q0 252 43 326q29 49 155 149t190.5 100t240.5 -149q166 150 234.5 149.5t200.5 -109t161 -168.5t29 -296v-74h-496q0 -123 31 -194q10 -25 36.5 -50.5t55.5 -25.5t72 49t67 119l211 -150q-55 -102 -168.5 -178t-190.5 -76t-243 150q-170 -150 -237.5 -150 t-193.5 100.5t-155 149.5q-43 76 -43 328zM322 553q0 -209 26 -256q14 -25 46 -55.5t50.5 -30.5t50 30.5t46.5 55.5q27 45 26.5 254t-26.5 256q-14 25 -46 55.5t-50.5 30.5t-50.5 -31t-46 -55q-26 -45 -26 -254zM819 676h234q-6 109 -21.5 136.5t-47.5 54t-59.5 26.5 t-62.5 -54t-43 -163z" />
<glyph unicode="&#x178;" horiz-adv-x="991" d="M142 1713.5q0 20.5 67.5 77t85 56.5t84 -56.5t66.5 -77t-66.5 -76.5t-85 -56t-85 56t-66.5 76.5zM547 1713.5q0 20.5 67.5 77t85 56.5t84 -56.5t66.5 -77t-66.5 -76.5t-85 -56t-85 56t-66.5 76.5zM72 1087v347h282v-347q0 -104 17.5 -146t61.5 -101.5t62.5 -59.5 t63.5 60.5t61.5 99.5t16.5 147v347h283v-347q0 -164 -27 -215t-102.5 -142t-153.5 -157v-573h-283v573q-80 66 -154.5 157t-101 143t-26.5 214z" />
<glyph unicode="&#x2c6;" horiz-adv-x="692" d="M72 1279q0 13 126 135t148.5 122t148.5 -122t126 -135t-39 -52t-57.5 -39t-178.5 123q-160 -123 -178 -123t-57 39t-39 52z" />
<glyph unicode="&#x2dc;" horiz-adv-x="958" d="M113 1279q0 13 126 135t149.5 122t182.5 -123q160 123 178.5 123t57.5 -39t39 -52t-126 -135t-149.5 -122t-183.5 123q-160 -123 -178.5 -123t-57 39t-38.5 52z" />
<glyph unicode="&#x2000;" horiz-adv-x="931" />
<glyph unicode="&#x2001;" horiz-adv-x="1865" />
<glyph unicode="&#x2002;" horiz-adv-x="931" />
<glyph unicode="&#x2003;" horiz-adv-x="1865" />
<glyph unicode="&#x2004;" horiz-adv-x="620" />
<glyph unicode="&#x2005;" horiz-adv-x="464" />
<glyph unicode="&#x2006;" horiz-adv-x="309" />
<glyph unicode="&#x2007;" horiz-adv-x="309" />
<glyph unicode="&#x2008;" horiz-adv-x="231" />
<glyph unicode="&#x2009;" horiz-adv-x="372" />
<glyph unicode="&#x200a;" horiz-adv-x="102" />
<glyph unicode="&#x2010;" horiz-adv-x="784" d="M113 532v164h559v-164h-559z" />
<glyph unicode="&#x2011;" horiz-adv-x="784" d="M113 532v164h559v-164h-559z" />
<glyph unicode="&#x2012;" horiz-adv-x="784" d="M113 532v164h559v-164h-559z" />
<glyph unicode="&#x2013;" horiz-adv-x="989" d="M113 532v164h764v-164h-764z" />
<glyph unicode="&#x2014;" horiz-adv-x="1398" d="M113 532v164h1173v-164h-1173z" />
<glyph unicode="&#x2018;" horiz-adv-x="626" d="M92 1090.5q0 31.5 178.5 199.5t198.5 168q6 0 27.5 -20.5t21.5 -31.5t-96 -194q113 -88 113 -120.5t-98.5 -116.5t-125 -84t-123 84t-96.5 115.5z" />
<glyph unicode="&#x2019;" horiz-adv-x="626" d="M92 1257.5q0 32.5 98.5 116.5t125 84t123 -84t96.5 -115.5t-178.5 -199.5t-198.5 -168q-6 0 -27.5 20.5t-21.5 31.5t96 194q-113 88 -113 120.5z" />
<glyph unicode="&#x201a;" horiz-adv-x="628" d="M74 342q0 33 98 117t125 84t123 -84t96 -116t-178 -200t-199 -168q-6 0 -27.5 20.5t-21.5 32t96 193.5q-112 88 -112 121z" />
<glyph unicode="&#x201c;" horiz-adv-x="1110" d="M92 1090.5q0 31.5 178.5 199.5t198.5 168q6 0 27.5 -20.5t21.5 -31.5t-96 -194q113 -88 113 -120.5t-98.5 -116.5t-125 -84t-123 84t-96.5 115.5zM575 1090.5q0 31.5 178.5 199.5t198.5 168q6 0 27.5 -20.5t21.5 -31.5t-96 -194q113 -88 113 -120.5t-98.5 -116.5 t-125 -84t-123 84t-96.5 115.5z" />
<glyph unicode="&#x201d;" horiz-adv-x="1110" d="M92 1257.5q0 32.5 98.5 116.5t125 84t123 -84t96.5 -115.5t-178.5 -199.5t-198.5 -168q-6 0 -27.5 20.5t-21.5 31.5t96 194q-113 88 -113 120.5zM575 1257.5q0 32.5 98.5 116.5t125 84t123 -84t96.5 -115.5t-178 -199.5t-199 -168q-6 0 -27.5 20.5t-21.5 31.5t96 194 q-113 88 -113 120.5z" />
<glyph unicode="&#x201e;" horiz-adv-x="1112" d="M74 342q0 33 98 117t125 84t123 -84t96 -116t-178 -200t-199 -168q-6 0 -27.5 20.5t-21.5 32t96 193.5q-112 88 -112 121zM557 342q0 33 98.5 117t125 84t122.5 -84t96 -116t-178 -200t-198 -168q-6 0 -28 20.5t-22 32t97 193.5q-113 88 -113 121z" />
<glyph unicode="&#x2022;" horiz-adv-x="772" d="M113 570.5q0 35.5 121.5 136t154.5 100.5t151.5 -100.5t118.5 -137.5t-118.5 -140t-152.5 -103t-154.5 104.5t-120.5 140z" />
<glyph unicode="&#x2026;" horiz-adv-x="1769" d="M1293 138.5q0 23.5 80.5 91t102 67.5t101.5 -67.5t80 -91t-80 -93.5t-102.5 -70t-102 70t-79.5 93.5zM703 138.5q0 23.5 80.5 91t102 67.5t101.5 -67.5t80 -91t-80 -93.5t-102.5 -70t-102 70t-79.5 93.5zM113 138.5q0 23.5 80.5 91t102 67.5t101.5 -67.5t80 -91 t-80 -93.5t-102.5 -70t-102 70t-79.5 93.5z" />
<glyph unicode="&#x202f;" horiz-adv-x="372" />
<glyph unicode="&#x2039;" horiz-adv-x="737" d="M113 614.5q0 34.5 99 148.5t202.5 212t118 98t53.5 -29.5t39 -39.5q0 -33 -226 -390q225 -356 226 -389q0 -10 -39 -39.5t-53.5 -29.5t-118 98t-202.5 212t-99 148.5z" />
<glyph unicode="&#x203a;" horiz-adv-x="737" d="M113 225q0 33 225 389q-225 356 -225 390q0 10 38.5 39.5t53 29.5t118 -98t203 -212t99.5 -148.5t-99.5 -148.5t-203 -212t-118 -98t-53 29.5t-38.5 39.5z" />
<glyph unicode="&#x205f;" horiz-adv-x="464" />
<glyph unicode="&#x20ac;" d="M14 596v168q0 209 23 248q39 90 197.5 231t240.5 141q55 0 159.5 -73.5t188.5 -163.5l-219 -154q-18 31 -59 62.5t-72 31.5t-81 -50t-64.5 -81.5t-16.5 -74.5h512v-160h-514v-82h514v-160h-512q4 -53 15 -69q14 -41 64 -89.5t86 -48.5t73 32t57 67l219 -154 q-82 -90 -187.5 -166t-162.5 -76q-82 0 -240.5 141.5t-197.5 231.5q-23 39 -23 248z" />
<glyph unicode="&#x2122;" horiz-adv-x="2367" d="M884 1286l246 172q66 -47 94 -112q147 113 209 112.5t232 -158.5q170 158 239 158q51 0 175 -107.5t155 -151.5t31 -116v-1083h-283v1042q0 39 -14 60.5t-48 52.5t-59.5 31t-81.5 -68q2 -10 3 -35v-1083h-283v1042q0 35 -13.5 58.5t-44 54.5t-49.5 31q-41 0 -108 -82 q6 -51 6 -109v-995h-283v877q0 174 -23.5 243.5t-99.5 165.5zM25 1188v246h815v-246h-267v-1188h-282v1188h-266z" />
<glyph unicode="&#xe000;" horiz-adv-x="1105" d="M0 1105h1105v-1105h-1105v1105z" />
<glyph unicode="&#xfb01;" horiz-adv-x="1167" d="M756 1373.5q0 23.5 79 91t100.5 67.5t99 -66.5t77.5 -90t-78.5 -91t-100 -67.5t-99.5 66.5t-78 90zM795 307v797h270v-709q0 -104 24.5 -161.5t78.5 -100.5l-226 -158q-147 117 -147 332zM31 809v154l102 24q0 229 22.5 280.5t155.5 160t195.5 108.5t157 -58.5 t141.5 -134.5l-201 -135q-57 92 -98 92q-20 0 -47 -26.5t-41.5 -55t-14.5 -194.5h291v-215h-291v-809h-270v809h-102z" />
<glyph unicode="&#xfb02;" horiz-adv-x="1187" d="M785 307v1229h270v-1141q0 -104 24.5 -161.5t77.5 -100.5l-225 -158q-147 117 -147 332zM31 809v154l102 24q0 229 22.5 280.5t155.5 160t195.5 108.5t157 -58.5t141.5 -134.5l-201 -135q-57 92 -98 92q-20 0 -47 -26.5t-41.5 -55t-14.5 -194.5h291v-215h-291v-809h-270 v809h-102z" />
<glyph unicode="&#xfb03;" horiz-adv-x="1880" d="M1468 1373.5q0 23.5 79 91t100.5 67.5t99 -66.5t77.5 -90t-78.5 -91t-100 -67.5t-99.5 66.5t-78 90zM1507 307v797h270v-709q0 -104 24.5 -161.5t78.5 -100.5l-226 -158q-147 117 -147 332zM744 809v154l102 24q0 229 22.5 280.5t155.5 160t195.5 108.5t157 -58.5 t141.5 -134.5l-201 -135q-57 92 -98 92q-20 0 -47 -26.5t-41.5 -55t-14.5 -194.5h291v-215h-291v-809h-270v809h-102zM31 809v154l102 24q0 229 22.5 280.5t155.5 160t195.5 108.5t157 -58.5t141.5 -134.5l-201 -135q-57 92 -98 92q-20 0 -47 -26.5t-41.5 -55t-14.5 -194.5 h291v-215h-291v-809h-270v809h-102z" />
<glyph unicode="&#xfb04;" horiz-adv-x="1900" d="M1497 307v1229h270v-1141q0 -104 24.5 -161.5t77.5 -100.5l-225 -158q-147 117 -147 332zM744 809v154l102 24q0 229 22.5 280.5t155.5 160t195.5 108.5t157 -58.5t141.5 -134.5l-201 -135q-57 92 -98 92q-20 0 -47 -26.5t-41.5 -55t-14.5 -194.5h291v-215h-291v-809 h-270v809h-102zM31 809v154l102 24q0 229 22.5 280.5t155.5 160t195.5 108.5t157 -58.5t141.5 -134.5l-201 -135q-57 92 -98 92q-20 0 -47 -26.5t-41.5 -55t-14.5 -194.5h291v-215h-291v-809h-270v809h-102z" />
</font>
</defs>
</svg>
